<svg width="139" height="107" viewBox="0 0 139 107" fill="none" xmlns="http://www.w3.org/2000/svg">
<path d="M57.2344 34V33.1152H52.9512L55.2422 30.6309C55.457 30.3965 55.6602 30.1621 55.8516 29.9277C56.0469 29.6895 56.2188 29.4492 56.3672 29.207C56.5117 28.9648 56.627 28.7207 56.7129 28.4746C56.7988 28.2246 56.8418 27.9727 56.8418 27.7188C56.8418 27.3789 56.7812 27.0645 56.6602 26.7754C56.543 26.4863 56.373 26.2363 56.1504 26.0254C55.9277 25.8145 55.6543 25.6504 55.3301 25.5332C55.0098 25.4121 54.6484 25.3516 54.2461 25.3516C53.8086 25.3516 53.418 25.4219 53.0742 25.5625C52.7344 25.7031 52.4473 25.8926 52.2129 26.1309C51.9746 26.3691 51.793 26.6484 51.668 26.9688C51.543 27.2852 51.4805 27.623 51.4805 27.9824H52.5703C52.5703 27.7168 52.6035 27.4766 52.6699 27.2617C52.7402 27.0469 52.8457 26.8633 52.9863 26.7109C53.123 26.5625 53.2949 26.4473 53.502 26.3652C53.7129 26.2832 53.9609 26.2422 54.2461 26.2422C54.4805 26.2422 54.6895 26.2832 54.873 26.3652C55.0605 26.4434 55.2207 26.5508 55.3535 26.6875C55.4824 26.8242 55.5801 26.9863 55.6465 27.1738C55.7168 27.3574 55.752 27.5547 55.752 27.7656C55.752 27.9375 55.7305 28.1055 55.6875 28.2695C55.6445 28.4297 55.5723 28.5996 55.4707 28.7793C55.3691 28.9629 55.2344 29.1621 55.0664 29.377C54.8984 29.5918 54.6895 29.8379 54.4395 30.1152L51.6445 33.2207V34H57.2344ZM59.5957 29.7227L60.4629 29.9453C60.5605 29.8594 60.6543 29.7832 60.7441 29.7168C60.8379 29.6504 60.9375 29.5938 61.043 29.5469C61.1484 29.5 61.2656 29.4648 61.3945 29.4414C61.5273 29.4141 61.6836 29.4004 61.8633 29.4004C62.1367 29.4004 62.3789 29.4492 62.5898 29.5469C62.8008 29.6445 62.9785 29.7773 63.123 29.9453C63.2676 30.1172 63.377 30.3184 63.4512 30.5488C63.5293 30.7793 63.5684 31.0273 63.5684 31.293C63.5684 31.5859 63.5332 31.8516 63.4629 32.0898C63.3965 32.3281 63.2969 32.5312 63.1641 32.6992C63.0273 32.8711 62.8594 33.0039 62.6602 33.0977C62.4609 33.1875 62.2324 33.2324 61.9746 33.2324C61.5176 33.2324 61.1426 33.1074 60.8496 32.8574C60.5605 32.6074 60.3828 32.2402 60.3164 31.7559H59.2852C59.3242 32.1504 59.4199 32.4961 59.5723 32.793C59.7285 33.0898 59.9277 33.3359 60.1699 33.5312C60.4082 33.7266 60.6816 33.873 60.9902 33.9707C61.2988 34.0684 61.627 34.1172 61.9746 34.1172C62.4277 34.1172 62.8223 34.0469 63.1582 33.9062C63.4941 33.7617 63.7734 33.5625 63.9961 33.3086C64.2148 33.0586 64.3789 32.7598 64.4883 32.4121C64.5977 32.0645 64.6523 31.6875 64.6523 31.2812C64.6523 30.8516 64.5938 30.4609 64.4766 30.1094C64.3594 29.7578 64.1914 29.457 63.9727 29.207C63.7539 28.9609 63.4883 28.7695 63.1758 28.6328C62.8633 28.4961 62.5098 28.4277 62.1152 28.4277C61.8066 28.4277 61.5352 28.4648 61.3008 28.5391C61.0664 28.6133 60.8652 28.6992 60.6973 28.7969L60.9375 26.5234H64.4004V25.4688H60.0234L59.5957 29.7227ZM68.5957 33.2969C68.5957 33.5234 68.666 33.7168 68.8066 33.877C68.9512 34.0332 69.1641 34.1113 69.4453 34.1113C69.7227 34.1113 69.9355 34.0332 70.084 33.877C70.2324 33.7207 70.3066 33.5273 70.3066 33.2969C70.3066 33.0625 70.2324 32.8652 70.084 32.7051C69.9395 32.541 69.7266 32.459 69.4453 32.459C69.1602 32.459 68.9473 32.541 68.8066 32.7051C68.666 32.8691 68.5957 33.0664 68.5957 33.2969ZM68.5957 28.1641C68.5957 28.3906 68.666 28.584 68.8066 28.7441C68.9512 28.9004 69.1641 28.9785 69.4453 28.9785C69.7227 28.9785 69.9355 28.9004 70.084 28.7441C70.2324 28.5879 70.3066 28.3945 70.3066 28.1641C70.3066 27.9297 70.2324 27.7324 70.084 27.5723C69.9395 27.4082 69.7266 27.3262 69.4453 27.3262C69.1602 27.3262 68.9473 27.4082 68.8066 27.5723C68.666 27.7363 68.5957 27.9336 68.5957 28.1641ZM78.9785 30.7363V28.7383C78.9785 28.1953 78.916 27.7148 78.791 27.2969C78.666 26.875 78.4863 26.5195 78.252 26.2305C78.0137 25.9414 77.7227 25.7227 77.3789 25.5742C77.0391 25.4219 76.6504 25.3457 76.2129 25.3457C75.7793 25.3457 75.3906 25.4219 75.0469 25.5742C74.707 25.7227 74.4199 25.9414 74.1855 26.2305C73.9473 26.5195 73.7656 26.875 73.6406 27.2969C73.5156 27.7148 73.4531 28.1953 73.4531 28.7383V30.7363C73.4531 31.2793 73.5156 31.7617 73.6406 32.1836C73.7656 32.6016 73.9473 32.9531 74.1855 33.2383C74.4238 33.5312 74.7148 33.752 75.0586 33.9004C75.4023 34.0449 75.791 34.1172 76.2246 34.1172C76.6621 34.1172 77.0508 34.043 77.3906 33.8945C77.7305 33.7461 78.0176 33.5273 78.252 33.2383C78.4863 32.9531 78.666 32.6016 78.791 32.1836C78.916 31.7617 78.9785 31.2793 78.9785 30.7363ZM74.543 30.5195C74.543 30.418 74.543 30.3184 74.543 30.2207C74.543 30.123 74.543 30.0254 74.543 29.9277V28.498C74.543 28.0996 74.582 27.75 74.6602 27.4492C74.7422 27.1445 74.8652 26.8965 75.0293 26.7051C75.166 26.5527 75.332 26.4375 75.5273 26.3594C75.7266 26.2773 75.9551 26.2363 76.2129 26.2363C76.4668 26.2363 76.6895 26.2734 76.8809 26.3477C77.0762 26.4219 77.2402 26.5332 77.373 26.6816C77.5098 26.8262 77.6172 27.0078 77.6953 27.2266C77.7773 27.4414 77.834 27.6895 77.8652 27.9707L74.543 30.5195ZM77.8887 30.9648C77.8887 31.3828 77.8457 31.7461 77.7598 32.0547C77.6777 32.3633 77.5469 32.6133 77.3672 32.8047C77.2344 32.9453 77.0723 33.0527 76.8809 33.127C76.6895 33.2012 76.4707 33.2383 76.2246 33.2383C75.9902 33.2383 75.7793 33.2051 75.5918 33.1387C75.4043 33.0684 75.2441 32.9668 75.1113 32.834C74.9668 32.6934 74.8496 32.5156 74.7598 32.3008C74.6699 32.082 74.6074 31.8301 74.5723 31.5449L77.8887 29.0078C77.8887 29.1172 77.8887 29.2559 77.8887 29.4238C77.8887 29.5879 77.8887 29.6992 77.8887 29.7578V30.9648ZM86.1855 30.7363V28.7383C86.1855 28.1953 86.123 27.7148 85.998 27.2969C85.873 26.875 85.6934 26.5195 85.459 26.2305C85.2207 25.9414 84.9297 25.7227 84.5859 25.5742C84.2461 25.4219 83.8574 25.3457 83.4199 25.3457C82.9863 25.3457 82.5977 25.4219 82.2539 25.5742C81.9141 25.7227 81.627 25.9414 81.3926 26.2305C81.1543 26.5195 80.9727 26.875 80.8477 27.2969C80.7227 27.7148 80.6602 28.1953 80.6602 28.7383V30.7363C80.6602 31.2793 80.7227 31.7617 80.8477 32.1836C80.9727 32.6016 81.1543 32.9531 81.3926 33.2383C81.6309 33.5312 81.9219 33.752 82.2656 33.9004C82.6094 34.0449 82.998 34.1172 83.4316 34.1172C83.8691 34.1172 84.2578 34.043 84.5977 33.8945C84.9375 33.7461 85.2246 33.5273 85.459 33.2383C85.6934 32.9531 85.873 32.6016 85.998 32.1836C86.123 31.7617 86.1855 31.2793 86.1855 30.7363ZM81.75 30.5195C81.75 30.418 81.75 30.3184 81.75 30.2207C81.75 30.123 81.75 30.0254 81.75 29.9277V28.498C81.75 28.0996 81.7891 27.75 81.8672 27.4492C81.9492 27.1445 82.0723 26.8965 82.2363 26.7051C82.373 26.5527 82.5391 26.4375 82.7344 26.3594C82.9336 26.2773 83.1621 26.2363 83.4199 26.2363C83.6738 26.2363 83.8965 26.2734 84.0879 26.3477C84.2832 26.4219 84.4473 26.5332 84.5801 26.6816C84.7168 26.8262 84.8242 27.0078 84.9023 27.2266C84.9844 27.4414 85.041 27.6895 85.0723 27.9707L81.75 30.5195ZM85.0957 30.9648C85.0957 31.3828 85.0527 31.7461 84.9668 32.0547C84.8848 32.3633 84.7539 32.6133 84.5742 32.8047C84.4414 32.9453 84.2793 33.0527 84.0879 33.127C83.8965 33.2012 83.6777 33.2383 83.4316 33.2383C83.1973 33.2383 82.9863 33.2051 82.7988 33.1387C82.6113 33.0684 82.4512 32.9668 82.3184 32.834C82.1738 32.6934 82.0566 32.5156 81.9668 32.3008C81.877 32.082 81.8145 31.8301 81.7793 31.5449L85.0957 29.0078C85.0957 29.1172 85.0957 29.2559 85.0957 29.4238C85.0957 29.5879 85.0957 29.6992 85.0957 29.7578V30.9648Z" fill="black"/>
<rect x="0.5" y="0.5" width="137.372" height="91.2481" rx="4.5" stroke="black"/>
<rect x="7.87988" y="6.95734" width="123.535" height="78.3333" stroke="black"/>
<path d="M87.694 92C91.2647 95.473 93.5161 99.9454 93.7865 104.857C93.8047 105.188 93.8139 105.521 93.8139 105.857L44 105.857C44 105.521 44.0092 105.188 44.0275 104.857C44.2978 99.9454 46.5492 95.473 50.12 92" stroke="black" stroke-linecap="square"/>
<rect x="59.5" y="53.5" width="20" height="20" rx="10" stroke="black"/>
<rect x="93.5" y="53.5" width="7" height="7" rx="3.5" stroke="black"/>
<rect x="40.5" y="53.5" width="7" height="7" rx="3.5" stroke="black"/>
<rect x="40.5" y="14.5" width="60" height="30" rx="2.5" stroke="black"/>
<rect x="43.5" y="17.5" width="54" height="24" rx="1.5" stroke="black"/>
<rect x="47" y="37" width="3" height="3" rx="1" fill="black"/>
<rect x="71" y="37" width="3" height="3" rx="1" fill="black"/>
<rect x="59" y="37" width="3" height="3" rx="1" fill="black"/>
<rect x="83" y="37" width="3" height="3" rx="1" fill="black"/>
<rect x="53" y="37" width="3" height="3" rx="1" fill="black"/>
<rect x="77" y="37" width="3" height="3" rx="1" fill="black"/>
<rect x="65" y="37" width="3" height="3" rx="1" fill="black"/>
<rect x="89" y="37" width="3" height="3" rx="1" fill="black"/>
<path d="M72 63.5L68.25 65.6651L68.25 61.3349L72 63.5Z" fill="black"/>
</svg>
