<svg width="139" height="107" viewBox="0 0 139 107" fill="none" xmlns="http://www.w3.org/2000/svg">
<rect x="0.5" y="0.5" width="137.372" height="91.2481" rx="4.5" stroke="black"/>
<rect x="7.87988" y="6.95734" width="123.535" height="78.3333" stroke="black"/>
<path d="M87.694 92C91.2647 95.473 93.5161 99.9454 93.7865 104.857C93.8047 105.188 93.8139 105.521 93.8139 105.857L44 105.857C44 105.521 44.0092 105.188 44.0275 104.857C44.2978 99.9454 46.5492 95.473 50.12 92" stroke="black" stroke-linecap="square"/>
<rect x="33" y="56" width="74" height="4" fill="black"/>
<rect x="33" y="66" width="74" height="4" fill="black"/>
<path d="M39.8301 29.7129C39.2168 29.9668 38.5742 30.0938 37.9023 30.0938C36.8203 30.0938 35.9883 29.7715 35.4062 29.127C34.8281 28.4785 34.5391 27.5215 34.5391 26.2559C34.5391 25.6426 34.6191 25.0879 34.7793 24.5918C34.9395 24.0957 35.168 23.6758 35.4648 23.332C35.7617 22.9844 36.1211 22.7168 36.543 22.5293C36.9648 22.3418 37.4375 22.248 37.9609 22.248C38.3164 22.248 38.6465 22.2793 38.9512 22.3418C39.2559 22.4004 39.5488 22.4922 39.8301 22.6172V23.6426C39.5527 23.4902 39.2656 23.375 38.9688 23.2969C38.6719 23.2148 38.3477 23.1738 37.9961 23.1738C37.6367 23.1738 37.3105 23.2422 37.0176 23.3789C36.7285 23.5117 36.4824 23.707 36.2793 23.9648C36.0762 24.2188 35.9199 24.5312 35.8105 24.9023C35.7012 25.2695 35.6465 25.6895 35.6465 26.1621C35.6465 27.1543 35.8477 27.9023 36.25 28.4062C36.6523 28.9102 37.2422 29.1621 38.0195 29.1621C38.3477 29.1621 38.6621 29.125 38.9629 29.0508C39.2637 28.9727 39.5527 28.8652 39.8301 28.7285V29.7129ZM46.6562 27.0117C46.6562 27.4688 46.5918 27.8887 46.4629 28.2715C46.334 28.6504 46.1484 28.9766 45.9062 29.25C45.6641 29.5195 45.3691 29.7305 45.0215 29.8828C44.6738 30.0312 44.2793 30.1055 43.8379 30.1055C43.416 30.1055 43.0371 30.041 42.7012 29.9121C42.3691 29.7793 42.0859 29.5859 41.8516 29.332C41.6211 29.0781 41.4434 28.7637 41.3184 28.3887C41.1973 28.0137 41.1367 27.582 41.1367 27.0938C41.1367 26.6367 41.2012 26.2207 41.3301 25.8457C41.459 25.4668 41.6445 25.1426 41.8867 24.873C42.1289 24.5996 42.4238 24.3887 42.7715 24.2402C43.1191 24.0879 43.5137 24.0117 43.9551 24.0117C44.377 24.0117 44.7539 24.0781 45.0859 24.2109C45.4219 24.3398 45.7051 24.5312 45.9355 24.7852C46.1699 25.0352 46.3477 25.3477 46.4688 25.7227C46.5938 26.0977 46.6562 26.5273 46.6562 27.0117ZM45.6133 27.0586C45.6133 26.6953 45.5723 26.3789 45.4902 26.1094C45.4121 25.8359 45.2988 25.6094 45.1504 25.4297C45.002 25.2461 44.8203 25.1094 44.6055 25.0195C44.3945 24.9258 44.1582 24.8789 43.8965 24.8789C43.5918 24.8789 43.3301 24.9395 43.1113 25.0605C42.8965 25.1777 42.7188 25.3359 42.5781 25.5352C42.4414 25.7344 42.3398 25.9668 42.2734 26.2324C42.2109 26.4941 42.1797 26.7695 42.1797 27.0586C42.1797 27.4219 42.2188 27.7402 42.2969 28.0137C42.3789 28.2871 42.4941 28.5156 42.6426 28.6992C42.791 28.8789 42.9707 29.0156 43.1816 29.1094C43.3926 29.1992 43.6309 29.2441 43.8965 29.2441C44.2012 29.2441 44.4609 29.1855 44.6758 29.0684C44.8945 28.9473 45.0723 28.7871 45.209 28.5879C45.3496 28.3887 45.4512 28.1582 45.5137 27.8965C45.5801 27.6309 45.6133 27.3516 45.6133 27.0586ZM53.2539 27.0117C53.2539 27.4688 53.1895 27.8887 53.0605 28.2715C52.9316 28.6504 52.7461 28.9766 52.5039 29.25C52.2617 29.5195 51.9668 29.7305 51.6191 29.8828C51.2715 30.0312 50.877 30.1055 50.4355 30.1055C50.0137 30.1055 49.6348 30.041 49.2988 29.9121C48.9668 29.7793 48.6836 29.5859 48.4492 29.332C48.2188 29.0781 48.041 28.7637 47.916 28.3887C47.7949 28.0137 47.7344 27.582 47.7344 27.0938C47.7344 26.6367 47.7988 26.2207 47.9277 25.8457C48.0566 25.4668 48.2422 25.1426 48.4844 24.873C48.7266 24.5996 49.0215 24.3887 49.3691 24.2402C49.7168 24.0879 50.1113 24.0117 50.5527 24.0117C50.9746 24.0117 51.3516 24.0781 51.6836 24.2109C52.0195 24.3398 52.3027 24.5312 52.5332 24.7852C52.7676 25.0352 52.9453 25.3477 53.0664 25.7227C53.1914 26.0977 53.2539 26.5273 53.2539 27.0117ZM52.2109 27.0586C52.2109 26.6953 52.1699 26.3789 52.0879 26.1094C52.0098 25.8359 51.8965 25.6094 51.748 25.4297C51.5996 25.2461 51.418 25.1094 51.2031 25.0195C50.9922 24.9258 50.7559 24.8789 50.4941 24.8789C50.1895 24.8789 49.9277 24.9395 49.709 25.0605C49.4941 25.1777 49.3164 25.3359 49.1758 25.5352C49.0391 25.7344 48.9375 25.9668 48.8711 26.2324C48.8086 26.4941 48.7773 26.7695 48.7773 27.0586C48.7773 27.4219 48.8164 27.7402 48.8945 28.0137C48.9766 28.2871 49.0918 28.5156 49.2402 28.6992C49.3887 28.8789 49.5684 29.0156 49.7793 29.1094C49.9902 29.1992 50.2285 29.2441 50.4941 29.2441C50.7988 29.2441 51.0586 29.1855 51.2734 29.0684C51.4922 28.9473 51.6699 28.7871 51.8066 28.5879C51.9473 28.3887 52.0488 28.1582 52.1113 27.8965C52.1777 27.6309 52.2109 27.3516 52.2109 27.0586ZM56.7344 22.5586H54.9941V21.7207H57.7656V29.1504H59.5176V30H54.8008V29.1504H56.7344V22.5586ZM72.6543 30H71.6348V26.2441C71.6348 25.791 71.5488 25.4531 71.377 25.2305C71.209 25.0039 70.9668 24.8906 70.6504 24.8906C70.5137 24.8906 70.3848 24.9102 70.2637 24.9492C70.1465 24.9844 70.0234 25.0488 69.8945 25.1426C69.7656 25.2324 69.625 25.3555 69.4727 25.5117C69.3203 25.668 69.1445 25.8633 68.9453 26.0977V30H67.9258V21.7207H68.9453V24.1172L68.9102 25.043C69.0703 24.8516 69.2266 24.6914 69.3789 24.5625C69.5352 24.4297 69.6895 24.3223 69.8418 24.2402C69.998 24.1582 70.1562 24.0996 70.3164 24.0645C70.4766 24.0293 70.6426 24.0117 70.8145 24.0117C71.4004 24.0117 71.8535 24.1914 72.1738 24.5508C72.4941 24.9062 72.6543 25.4434 72.6543 26.1621V30ZM79.252 30H78.3379L78.3027 29.0508C78.127 29.2539 77.959 29.4238 77.7988 29.5605C77.6426 29.6934 77.4863 29.8008 77.3301 29.8828C77.1738 29.9648 77.0156 30.0215 76.8555 30.0527C76.6992 30.0879 76.5332 30.1055 76.3574 30.1055C75.752 30.1055 75.2949 29.9277 74.9863 29.5723C74.6777 29.2168 74.5234 28.6797 74.5234 27.9609V24.1172H75.543V27.8789C75.543 28.7812 75.8828 29.2324 76.5625 29.2324C76.6875 29.2324 76.8086 29.2148 76.9258 29.1797C77.0469 29.1406 77.1719 29.0762 77.3008 28.9863C77.4336 28.8926 77.5742 28.7676 77.7227 28.6113C77.875 28.4551 78.0449 28.2578 78.2324 28.0195V24.1172H79.252V30ZM85.8496 30H84.8301V26.2441C84.8301 25.791 84.7441 25.4531 84.5723 25.2305C84.4043 25.0039 84.1621 24.8906 83.8457 24.8906C83.709 24.8906 83.5801 24.9102 83.459 24.9492C83.3418 24.9844 83.2188 25.0488 83.0898 25.1426C82.9609 25.2324 82.8203 25.3555 82.668 25.5117C82.5156 25.668 82.3398 25.8633 82.1406 26.0977V30H81.1211V21.7207H82.1406V24.1172L82.1055 25.043C82.2656 24.8516 82.4219 24.6914 82.5742 24.5625C82.7305 24.4297 82.8848 24.3223 83.0371 24.2402C83.1934 24.1582 83.3516 24.0996 83.5117 24.0645C83.6719 24.0293 83.8379 24.0117 84.0098 24.0117C84.5957 24.0117 85.0488 24.1914 85.3691 24.5508C85.6895 24.9062 85.8496 25.4434 85.8496 26.1621V30ZM92.1836 24.3223C92.1836 24.9551 92.0078 25.4355 91.6562 25.7637C91.3047 26.0879 90.7949 26.2715 90.127 26.3145L90.0801 27.7559H89.207L89.1309 25.5117H89.8164C90.0547 25.5117 90.2539 25.4863 90.4141 25.4355C90.5742 25.3848 90.7031 25.3125 90.8008 25.2188C90.8984 25.125 90.9688 25.0117 91.0117 24.8789C91.0547 24.7422 91.0762 24.5898 91.0762 24.4219C91.0762 24.1367 91.0176 23.8828 90.9004 23.6602C90.7832 23.4375 90.6191 23.25 90.4082 23.0977C90.1973 22.9453 89.9453 22.8301 89.6523 22.752C89.3633 22.6738 89.0469 22.6348 88.7031 22.6348H88.5566V21.7207H88.7148C89.1094 21.7207 89.4688 21.7578 89.793 21.832C90.1211 21.9062 90.4121 22.0078 90.666 22.1367C90.9238 22.2617 91.1465 22.4102 91.334 22.582C91.5254 22.7539 91.6836 22.9355 91.8086 23.127C91.9375 23.3184 92.0312 23.5176 92.0898 23.7246C92.1523 23.9277 92.1836 24.127 92.1836 24.3223ZM89.6348 28.5586C89.7441 28.5586 89.8457 28.5801 89.9395 28.623C90.0332 28.6621 90.1133 28.7168 90.1797 28.7871C90.25 28.8574 90.3047 28.9414 90.3438 29.0391C90.3828 29.1328 90.4023 29.2324 90.4023 29.3379C90.4023 29.4434 90.3828 29.543 90.3438 29.6367C90.3047 29.7305 90.25 29.8125 90.1797 29.8828C90.1133 29.9492 90.0332 30.002 89.9395 30.041C89.8457 30.084 89.7441 30.1055 89.6348 30.1055C89.5293 30.1055 89.4297 30.084 89.3359 30.041C89.2422 30.002 89.1602 29.9492 89.0898 29.8828C89.0195 29.8125 88.9648 29.7305 88.9258 29.6367C88.8867 29.543 88.8672 29.4434 88.8672 29.3379C88.8672 29.2324 88.8867 29.1328 88.9258 29.0391C88.9648 28.9414 89.0195 28.8574 89.0898 28.7871C89.1602 28.7168 89.2422 28.6621 89.3359 28.623C89.4297 28.5801 89.5293 28.5586 89.6348 28.5586ZM37.2988 38.0117C37.4199 38.0117 37.5352 38.0371 37.6445 38.0879C37.7539 38.1348 37.8496 38.1992 37.9316 38.2812C38.0137 38.3633 38.0781 38.459 38.125 38.5684C38.1758 38.6777 38.2012 38.793 38.2012 38.9141C38.2012 39.0391 38.1758 39.1562 38.125 39.2656C38.0781 39.3711 38.0137 39.4648 37.9316 39.5469C37.8496 39.6289 37.7539 39.6934 37.6445 39.7402C37.5352 39.7871 37.4199 39.8105 37.2988 39.8105C37.1738 39.8105 37.0566 39.7871 36.9473 39.7402C36.8418 39.6934 36.748 39.6289 36.666 39.5469C36.584 39.4648 36.5195 39.3711 36.4727 39.2656C36.4258 39.1562 36.4023 39.0391 36.4023 38.9141C36.4023 38.793 36.4258 38.6777 36.4727 38.5684C36.5195 38.459 36.584 38.3633 36.666 38.2812C36.748 38.1992 36.8418 38.1348 36.9473 38.0879C37.0566 38.0371 37.1738 38.0117 37.2988 38.0117ZM37.2988 42.3066C37.4199 42.3066 37.5352 42.332 37.6445 42.3828C37.7539 42.4297 37.8496 42.4941 37.9316 42.5762C38.0137 42.6582 38.0781 42.7539 38.125 42.8633C38.1758 42.9727 38.2012 43.0879 38.2012 43.209C38.2012 43.334 38.1758 43.4512 38.125 43.5605C38.0781 43.666 38.0137 43.7598 37.9316 43.8418C37.8496 43.9238 37.7539 43.9883 37.6445 44.0352C37.5352 44.082 37.4199 44.1055 37.2988 44.1055C37.1738 44.1055 37.0566 44.082 36.9473 44.0352C36.8418 43.9883 36.748 43.9238 36.666 43.8418C36.584 43.7598 36.5195 43.666 36.4727 43.5605C36.4258 43.4512 36.4023 43.334 36.4023 43.209C36.4023 43.0879 36.4258 42.9727 36.4727 42.8633C36.5195 42.7539 36.584 42.6582 36.666 42.5762C36.748 42.4941 36.8418 42.4297 36.9473 42.3828C37.0566 42.332 37.1738 42.3066 37.2988 42.3066ZM42.7363 35.2754C44.5371 36.9434 45.4375 38.7988 45.4375 40.8418C45.4375 41.2637 45.3945 41.7012 45.3086 42.1543C45.2227 42.6074 45.0762 43.0723 44.8691 43.5488C44.6621 44.0215 44.3828 44.502 44.0312 44.9902C43.6836 45.4785 43.2441 45.9688 42.7129 46.4609L42.1211 45.8574C42.8828 45.1035 43.4512 44.3164 43.8262 43.4961C44.2012 42.6758 44.3887 41.8164 44.3887 40.918C44.3887 39.0586 43.6328 37.3867 42.1211 35.9023L42.7363 35.2754Z" fill="black"/>
</svg>
