<svg width="165" height="107" viewBox="0 0 165 107" fill="none" xmlns="http://www.w3.org/2000/svg">
<path d="M118 85.3333H7V6H131.535V31" stroke="black"/>
<rect x="117.5" y="31.5" width="46.0465" height="73.8117" rx="4.5" stroke="black"/>
<rect x="122.367" y="36.8988" width="36.3128" height="63.0141" stroke="black"/>
<rect x="122.535" y="36.5349" width="35.9767" height="5.53488" fill="black"/>
<path d="M125.302 73.4341H155.744V76.2015H136.672H125.302V73.4341Z" fill="black"/>
<path d="M125.302 77.124H155.744V79.8915H136.672H125.302V77.124Z" fill="black"/>
<path d="M125.302 82.6589H155.744V84.5039H136.672H125.302V82.6589Z" fill="black"/>
<path d="M125.302 85.4263H155.744V87.2713H136.672H125.302V85.4263Z" fill="black"/>
<path d="M125.302 88.1938H155.744V90.0387H136.672H125.302V88.1938Z" fill="black"/>
<path d="M125.302 92.8062H136.672H144.328H155.744V93.7287H136.672H125.302V92.8062Z" fill="black"/>
<rect x="137.97" y="33.8337" width="5.1008" height="0.566755" fill="black"/>
<rect x="125.802" y="45.3372" width="29.4419" height="23.907" stroke="black"/>
<path d="M7 6H131.535V17.0698H7V6Z" fill="black"/>
<rect x="33.3295" y="23.1047" width="70.9535" height="33.1318" stroke="black"/>
<rect x="32.8295" y="60.4264" width="71.9535" height="7.37985" fill="black"/>
<rect x="32.8295" y="68.7287" width="71.9535" height="7.37985" fill="black"/>
<path d="M0.5 5C0.5 2.51472 2.51472 0.5 5 0.5H133.372C135.857 0.5 137.872 2.51472 137.872 5V31.5H123C119.962 31.5 117.5 33.9624 117.5 37V91.7481H5C2.51472 91.7481 0.5 89.7333 0.5 87.2481V5Z" stroke="black"/>
<path d="M87.694 92.248C91.2647 95.721 93.5161 100.193 93.7865 105.105C93.8047 105.436 93.8139 105.769 93.8139 106.105L44 106.105C44 105.769 44.0092 105.436 44.0275 105.105C44.2978 100.193 46.5492 95.721 50.12 92.248" stroke="black" stroke-linecap="square"/>
</svg>
