<svg width="139" height="107" viewBox="0 0 139 107" fill="none" xmlns="http://www.w3.org/2000/svg">
<rect x="0.5" y="0.5" width="137.372" height="91.2481" rx="4.5" stroke="black"/>
<rect x="7.87988" y="6.95734" width="123.535" height="78.3333" stroke="black"/>
<path d="M87.694 92C91.2647 95.473 93.5161 99.9454 93.7865 104.857C93.8047 105.188 93.8139 105.521 93.8139 105.857L44 105.857C44 105.521 44.0092 105.188 44.0275 104.857C44.2978 99.9454 46.5492 95.473 50.12 92" stroke="black" stroke-linecap="square"/>
<path d="M34.5 20.5H105.5V15.5H70H34.5V20.5Z" stroke="black"/>
<rect x="34" y="26" width="9" height="13" fill="black"/>
<rect x="34" y="45" width="9" height="13" fill="black"/>
<rect x="34" y="64" width="9" height="13" fill="black"/>
<rect x="55" y="26" width="9" height="13" fill="black"/>
<rect x="55" y="45" width="9" height="13" fill="black"/>
<rect x="55" y="64" width="9" height="13" fill="black"/>
<rect x="76" y="26" width="9" height="13" fill="black"/>
<rect x="76" y="45" width="9" height="13" fill="black"/>
<rect x="76" y="64" width="9" height="13" fill="black"/>
<rect x="97" y="26" width="9" height="13" fill="black"/>
<rect x="97" y="45" width="9" height="13" fill="black"/>
<rect x="97" y="64" width="9" height="13" fill="black"/>
</svg>
