<svg width="139" height="107" viewBox="0 0 139 107" fill="none" xmlns="http://www.w3.org/2000/svg">
<rect x="0.5" y="0.5" width="137.372" height="91.2481" rx="4.5" stroke="black"/>
<rect x="7.87988" y="6.95734" width="123.535" height="78.3333" stroke="black"/>
<path d="M87.694 92C91.2647 95.473 93.5161 99.9454 93.7865 104.857C93.8047 105.188 93.8139 105.521 93.8139 105.857L44 105.857C44 105.521 44.0092 105.188 44.0275 104.857C44.2978 99.9454 46.5492 95.473 50.12 92" stroke="black" stroke-linecap="square"/>
<rect x="73.5" y="24.5" width="51" height="22" stroke="black"/>
<rect x="13.5" y="25.5" width="51" height="4" stroke="black"/>
<rect x="13.5" y="33.5" width="51" height="4" stroke="black"/>
<rect x="13.5" y="41.5" width="51" height="4" stroke="black"/>
<rect x="8.25" y="14.25" width="122.5" height="0.5" stroke="black" stroke-width="0.5"/>
<rect x="8" y="66" width="123" height="19" fill="black"/>
</svg>
