<svg width="47" height="47" viewBox="0 0 47 47" fill="none" xmlns="http://www.w3.org/2000/svg">
<path fill-rule="evenodd" clip-rule="evenodd" d="M41 23.5C41 33.165 33.165 41 23.5 41C23.3328 41 23.1661 40.9977 23 40.993V6.00701C23.1661 6.00235 23.3328 6 23.5 6C33.165 6 41 13.835 41 23.5ZM23 46.9948C23.1662 46.9983 23.3329 47 23.5 47C36.4787 47 47 36.4787 47 23.5C47 10.5213 36.4787 0 23.5 0C23.3329 0 23.1662 0.00174363 23 0.00521369C10.2522 0.271297 0 10.6884 0 23.5C0 35.6675 9.24724 45.6752 21.0973 46.8787C21.7245 46.9424 22.3591 46.9814 23 46.9948Z" fill="black"/>
</svg>
