<svg width="165" height="107" viewBox="0 0 165 107" fill="none" xmlns="http://www.w3.org/2000/svg">
<path d="M118 85.3333H7V6H131.535V31" stroke="black"/>
<rect x="117.5" y="31.5" width="46.0465" height="73.8117" rx="4.5" stroke="black"/>
<rect x="122.367" y="36.8988" width="36.3128" height="63.0141" stroke="black"/>
<rect x="122" y="41" width="37" height="1" fill="black"/>
<rect x="137.97" y="33.8337" width="5.1008" height="0.566755" fill="black"/>
<path d="M131.5 58.5H148.5V62.5H131.5V58.5Z" stroke="black"/>
<path d="M52.5 42.5H85.5V50.5H52.5V42.5Z" stroke="black"/>
<rect x="7.25" y="18.25" width="124.5" height="0.5" stroke="black" stroke-width="0.5"/>
<rect x="33" y="78" width="71.3824" height="7.37985" fill="black"/>
<rect x="43" y="54" width="51" height="1" fill="black"/>
<rect x="43" y="57" width="51" height="1" fill="black"/>
<rect x="129" y="67" width="22" height="2" fill="black"/>
<rect x="129" y="71" width="22" height="2" fill="black"/>
<rect x="129" y="96" width="22" height="2" fill="black"/>
<path d="M0.5 5C0.5 2.51472 2.51472 0.5 5 0.5H133.372C135.857 0.5 137.872 2.51472 137.872 5V31.5H123C119.962 31.5 117.5 33.9624 117.5 37V91.7481H5C2.51472 91.7481 0.5 89.7333 0.5 87.2481V5Z" stroke="black"/>
<path d="M87.694 92.248C91.2647 95.721 93.5161 100.193 93.7865 105.105C93.8047 105.436 93.8139 105.769 93.8139 106.105L44 106.105C44 105.769 44.0092 105.436 44.0275 105.105C44.2978 100.193 46.5492 95.721 50.12 92.248" stroke="black" stroke-linecap="square"/>
<path d="M24.3398 34.0391H24.2285V35.0059H24.3398C25.043 35.0059 25.6387 34.9102 26.127 34.7188C26.6191 34.5234 27.0039 34.2695 27.2812 33.957C27.7422 33.4414 28.043 32.8516 28.1836 32.1875C28.3242 31.5195 28.3945 30.8555 28.3945 30.1953V29.8027C28.3945 29.3379 28.3301 28.873 28.2012 28.4082C28.0723 27.9395 27.8789 27.5488 27.6211 27.2363C27.4023 26.9707 27.1309 26.7578 26.8066 26.5977C26.4863 26.4336 26.1074 26.3516 25.6699 26.3516C25.2324 26.3516 24.8477 26.4316 24.5156 26.5918C24.1875 26.748 23.9141 26.959 23.6953 27.2246C23.4727 27.4941 23.3047 27.8086 23.1914 28.168C23.082 28.5234 23.0273 28.9023 23.0273 29.3047C23.0273 29.6484 23.0742 29.9902 23.168 30.3301C23.2617 30.6699 23.4082 30.9746 23.6074 31.2441C23.8066 31.5137 24.0586 31.7324 24.3633 31.9004C24.6719 32.0645 25.0371 32.1465 25.459 32.1465C25.6777 32.1465 25.8789 32.125 26.0625 32.082C26.25 32.0352 26.4199 31.9727 26.5723 31.8945C26.7246 31.8164 26.8613 31.7266 26.9824 31.625C27.1035 31.5195 27.2109 31.4082 27.3047 31.291V31.3027C27.2852 31.6621 27.2285 32.0098 27.1348 32.3457C27.041 32.6816 26.8594 32.9961 26.5898 33.2891C26.3672 33.5273 26.0723 33.7129 25.7051 33.8457C25.3418 33.9746 24.8867 34.0391 24.3398 34.0391ZM25.6348 31.25C25.373 31.25 25.1445 31.1934 24.9492 31.0801C24.7578 30.9629 24.5996 30.8105 24.4746 30.623C24.3457 30.4355 24.25 30.2227 24.1875 29.9844C24.125 29.7422 24.0938 29.4961 24.0938 29.2461C24.0938 28.9648 24.1289 28.7031 24.1992 28.4609C24.2695 28.2148 24.373 28.002 24.5098 27.8223C24.6426 27.6465 24.8066 27.5078 25.002 27.4062C25.1973 27.3047 25.4219 27.2539 25.6758 27.2539C25.8984 27.2539 26.1074 27.3086 26.3027 27.418C26.502 27.5273 26.6777 27.6836 26.8301 27.8867C26.9785 28.0938 27.0957 28.3457 27.1816 28.6426C27.2715 28.9395 27.3164 29.2773 27.3164 29.6562V30.0078C27.25 30.1914 27.1582 30.3594 27.041 30.5117C26.9277 30.6602 26.7988 30.7891 26.6543 30.8984C26.5059 31.0117 26.3438 31.0996 26.168 31.1621C25.9961 31.2207 25.8184 31.25 25.6348 31.25ZM31.5469 34.0391H31.4355V35.0059H31.5469C32.25 35.0059 32.8457 34.9102 33.334 34.7188C33.8262 34.5234 34.2109 34.2695 34.4883 33.957C34.9492 33.4414 35.25 32.8516 35.3906 32.1875C35.5312 31.5195 35.6016 30.8555 35.6016 30.1953V29.8027C35.6016 29.3379 35.5371 28.873 35.4082 28.4082C35.2793 27.9395 35.0859 27.5488 34.8281 27.2363C34.6094 26.9707 34.3379 26.7578 34.0137 26.5977C33.6934 26.4336 33.3145 26.3516 32.877 26.3516C32.4395 26.3516 32.0547 26.4316 31.7227 26.5918C31.3945 26.748 31.1211 26.959 30.9023 27.2246C30.6797 27.4941 30.5117 27.8086 30.3984 28.168C30.2891 28.5234 30.2344 28.9023 30.2344 29.3047C30.2344 29.6484 30.2812 29.9902 30.375 30.3301C30.4688 30.6699 30.6152 30.9746 30.8145 31.2441C31.0137 31.5137 31.2656 31.7324 31.5703 31.9004C31.8789 32.0645 32.2441 32.1465 32.666 32.1465C32.8848 32.1465 33.0859 32.125 33.2695 32.082C33.457 32.0352 33.627 31.9727 33.7793 31.8945C33.9316 31.8164 34.0684 31.7266 34.1895 31.625C34.3105 31.5195 34.418 31.4082 34.5117 31.291V31.3027C34.4922 31.6621 34.4355 32.0098 34.3418 32.3457C34.248 32.6816 34.0664 32.9961 33.7969 33.2891C33.5742 33.5273 33.2793 33.7129 32.9121 33.8457C32.5488 33.9746 32.0938 34.0391 31.5469 34.0391ZM32.8418 31.25C32.5801 31.25 32.3516 31.1934 32.1562 31.0801C31.9648 30.9629 31.8066 30.8105 31.6816 30.623C31.5527 30.4355 31.457 30.2227 31.3945 29.9844C31.332 29.7422 31.3008 29.4961 31.3008 29.2461C31.3008 28.9648 31.3359 28.7031 31.4062 28.4609C31.4766 28.2148 31.5801 28.002 31.7168 27.8223C31.8496 27.6465 32.0137 27.5078 32.209 27.4062C32.4043 27.3047 32.6289 27.2539 32.8828 27.2539C33.1055 27.2539 33.3145 27.3086 33.5098 27.418C33.709 27.5273 33.8848 27.6836 34.0371 27.8867C34.1855 28.0938 34.3027 28.3457 34.3887 28.6426C34.4785 28.9395 34.5234 29.2773 34.5234 29.6562V30.0078C34.457 30.1914 34.3652 30.3594 34.248 30.5117C34.1348 30.6602 34.0059 30.7891 33.8613 30.8984C33.7129 31.0117 33.5508 31.0996 33.375 31.1621C33.2031 31.2207 33.0254 31.25 32.8418 31.25ZM38.7539 34.0391H38.6426V35.0059H38.7539C39.457 35.0059 40.0527 34.9102 40.541 34.7188C41.0332 34.5234 41.418 34.2695 41.6953 33.957C42.1562 33.4414 42.457 32.8516 42.5977 32.1875C42.7383 31.5195 42.8086 30.8555 42.8086 30.1953V29.8027C42.8086 29.3379 42.7441 28.873 42.6152 28.4082C42.4863 27.9395 42.293 27.5488 42.0352 27.2363C41.8164 26.9707 41.5449 26.7578 41.2207 26.5977C40.9004 26.4336 40.5215 26.3516 40.084 26.3516C39.6465 26.3516 39.2617 26.4316 38.9297 26.5918C38.6016 26.748 38.3281 26.959 38.1094 27.2246C37.8867 27.4941 37.7188 27.8086 37.6055 28.168C37.4961 28.5234 37.4414 28.9023 37.4414 29.3047C37.4414 29.6484 37.4883 29.9902 37.582 30.3301C37.6758 30.6699 37.8223 30.9746 38.0215 31.2441C38.2207 31.5137 38.4727 31.7324 38.7773 31.9004C39.0859 32.0645 39.4512 32.1465 39.873 32.1465C40.0918 32.1465 40.293 32.125 40.4766 32.082C40.6641 32.0352 40.834 31.9727 40.9863 31.8945C41.1387 31.8164 41.2754 31.7266 41.3965 31.625C41.5176 31.5195 41.625 31.4082 41.7188 31.291V31.3027C41.6992 31.6621 41.6426 32.0098 41.5488 32.3457C41.4551 32.6816 41.2734 32.9961 41.0039 33.2891C40.7812 33.5273 40.4863 33.7129 40.1191 33.8457C39.7559 33.9746 39.3008 34.0391 38.7539 34.0391ZM40.0488 31.25C39.7871 31.25 39.5586 31.1934 39.3633 31.0801C39.1719 30.9629 39.0137 30.8105 38.8887 30.623C38.7598 30.4355 38.6641 30.2227 38.6016 29.9844C38.5391 29.7422 38.5078 29.4961 38.5078 29.2461C38.5078 28.9648 38.543 28.7031 38.6133 28.4609C38.6836 28.2148 38.7871 28.002 38.9238 27.8223C39.0566 27.6465 39.2207 27.5078 39.416 27.4062C39.6113 27.3047 39.8359 27.2539 40.0898 27.2539C40.3125 27.2539 40.5215 27.3086 40.7168 27.418C40.916 27.5273 41.0918 27.6836 41.2441 27.8867C41.3926 28.0938 41.5098 28.3457 41.5957 28.6426C41.6855 28.9395 41.7305 29.2773 41.7305 29.6562V30.0078C41.6641 30.1914 41.5723 30.3594 41.4551 30.5117C41.3418 30.6602 41.2129 30.7891 41.0684 30.8984C40.9199 31.0117 40.7578 31.0996 40.582 31.1621C40.4102 31.2207 40.2324 31.25 40.0488 31.25ZM45.9609 34.0391H45.8496V35.0059H45.9609C46.6641 35.0059 47.2598 34.9102 47.748 34.7188C48.2402 34.5234 48.625 34.2695 48.9023 33.957C49.3633 33.4414 49.6641 32.8516 49.8047 32.1875C49.9453 31.5195 50.0156 30.8555 50.0156 30.1953V29.8027C50.0156 29.3379 49.9512 28.873 49.8223 28.4082C49.6934 27.9395 49.5 27.5488 49.2422 27.2363C49.0234 26.9707 48.752 26.7578 48.4277 26.5977C48.1074 26.4336 47.7285 26.3516 47.291 26.3516C46.8535 26.3516 46.4688 26.4316 46.1367 26.5918C45.8086 26.748 45.5352 26.959 45.3164 27.2246C45.0938 27.4941 44.9258 27.8086 44.8125 28.168C44.7031 28.5234 44.6484 28.9023 44.6484 29.3047C44.6484 29.6484 44.6953 29.9902 44.7891 30.3301C44.8828 30.6699 45.0293 30.9746 45.2285 31.2441C45.4277 31.5137 45.6797 31.7324 45.9844 31.9004C46.293 32.0645 46.6582 32.1465 47.0801 32.1465C47.2988 32.1465 47.5 32.125 47.6836 32.082C47.8711 32.0352 48.041 31.9727 48.1934 31.8945C48.3457 31.8164 48.4824 31.7266 48.6035 31.625C48.7246 31.5195 48.832 31.4082 48.9258 31.291V31.3027C48.9062 31.6621 48.8496 32.0098 48.7559 32.3457C48.6621 32.6816 48.4805 32.9961 48.2109 33.2891C47.9883 33.5273 47.6934 33.7129 47.3262 33.8457C46.9629 33.9746 46.5078 34.0391 45.9609 34.0391ZM47.2559 31.25C46.9941 31.25 46.7656 31.1934 46.5703 31.0801C46.3789 30.9629 46.2207 30.8105 46.0957 30.623C45.9668 30.4355 45.8711 30.2227 45.8086 29.9844C45.7461 29.7422 45.7148 29.4961 45.7148 29.2461C45.7148 28.9648 45.75 28.7031 45.8203 28.4609C45.8906 28.2148 45.9941 28.002 46.1309 27.8223C46.2637 27.6465 46.4277 27.5078 46.623 27.4062C46.8184 27.3047 47.043 27.2539 47.2969 27.2539C47.5195 27.2539 47.7285 27.3086 47.9238 27.418C48.123 27.5273 48.2988 27.6836 48.4512 27.8867C48.5996 28.0938 48.7168 28.3457 48.8027 28.6426C48.8926 28.9395 48.9375 29.2773 48.9375 29.6562V30.0078C48.8711 30.1914 48.7793 30.3594 48.6621 30.5117C48.5488 30.6602 48.4199 30.7891 48.2754 30.8984C48.127 31.0117 47.9648 31.0996 47.7891 31.1621C47.6172 31.2207 47.4395 31.25 47.2559 31.25ZM53.168 34.0391H53.0566V35.0059H53.168C53.8711 35.0059 54.4668 34.9102 54.9551 34.7188C55.4473 34.5234 55.832 34.2695 56.1094 33.957C56.5703 33.4414 56.8711 32.8516 57.0117 32.1875C57.1523 31.5195 57.2227 30.8555 57.2227 30.1953V29.8027C57.2227 29.3379 57.1582 28.873 57.0293 28.4082C56.9004 27.9395 56.707 27.5488 56.4492 27.2363C56.2305 26.9707 55.959 26.7578 55.6348 26.5977C55.3145 26.4336 54.9355 26.3516 54.498 26.3516C54.0605 26.3516 53.6758 26.4316 53.3438 26.5918C53.0156 26.748 52.7422 26.959 52.5234 27.2246C52.3008 27.4941 52.1328 27.8086 52.0195 28.168C51.9102 28.5234 51.8555 28.9023 51.8555 29.3047C51.8555 29.6484 51.9023 29.9902 51.9961 30.3301C52.0898 30.6699 52.2363 30.9746 52.4355 31.2441C52.6348 31.5137 52.8867 31.7324 53.1914 31.9004C53.5 32.0645 53.8652 32.1465 54.2871 32.1465C54.5059 32.1465 54.707 32.125 54.8906 32.082C55.0781 32.0352 55.248 31.9727 55.4004 31.8945C55.5527 31.8164 55.6895 31.7266 55.8105 31.625C55.9316 31.5195 56.0391 31.4082 56.1328 31.291V31.3027C56.1133 31.6621 56.0566 32.0098 55.9629 32.3457C55.8691 32.6816 55.6875 32.9961 55.418 33.2891C55.1953 33.5273 54.9004 33.7129 54.5332 33.8457C54.1699 33.9746 53.7148 34.0391 53.168 34.0391ZM54.4629 31.25C54.2012 31.25 53.9727 31.1934 53.7773 31.0801C53.5859 30.9629 53.4277 30.8105 53.3027 30.623C53.1738 30.4355 53.0781 30.2227 53.0156 29.9844C52.9531 29.7422 52.9219 29.4961 52.9219 29.2461C52.9219 28.9648 52.957 28.7031 53.0273 28.4609C53.0977 28.2148 53.2012 28.002 53.3379 27.8223C53.4707 27.6465 53.6348 27.5078 53.8301 27.4062C54.0254 27.3047 54.25 27.2539 54.5039 27.2539C54.7266 27.2539 54.9355 27.3086 55.1309 27.418C55.3301 27.5273 55.5059 27.6836 55.6582 27.8867C55.8066 28.0938 55.9238 28.3457 56.0098 28.6426C56.0996 28.9395 56.1445 29.2773 56.1445 29.6562V30.0078C56.0781 30.1914 55.9863 30.3594 55.8691 30.5117C55.7559 30.6602 55.627 30.7891 55.4824 30.8984C55.334 31.0117 55.1719 31.0996 54.9961 31.1621C54.8242 31.2207 54.6465 31.25 54.4629 31.25ZM60.375 34.0391H60.2637V35.0059H60.375C61.0781 35.0059 61.6738 34.9102 62.1621 34.7188C62.6543 34.5234 63.0391 34.2695 63.3164 33.957C63.7773 33.4414 64.0781 32.8516 64.2188 32.1875C64.3594 31.5195 64.4297 30.8555 64.4297 30.1953V29.8027C64.4297 29.3379 64.3652 28.873 64.2363 28.4082C64.1074 27.9395 63.9141 27.5488 63.6562 27.2363C63.4375 26.9707 63.166 26.7578 62.8418 26.5977C62.5215 26.4336 62.1426 26.3516 61.7051 26.3516C61.2676 26.3516 60.8828 26.4316 60.5508 26.5918C60.2227 26.748 59.9492 26.959 59.7305 27.2246C59.5078 27.4941 59.3398 27.8086 59.2266 28.168C59.1172 28.5234 59.0625 28.9023 59.0625 29.3047C59.0625 29.6484 59.1094 29.9902 59.2031 30.3301C59.2969 30.6699 59.4434 30.9746 59.6426 31.2441C59.8418 31.5137 60.0938 31.7324 60.3984 31.9004C60.707 32.0645 61.0723 32.1465 61.4941 32.1465C61.7129 32.1465 61.9141 32.125 62.0977 32.082C62.2852 32.0352 62.4551 31.9727 62.6074 31.8945C62.7598 31.8164 62.8965 31.7266 63.0176 31.625C63.1387 31.5195 63.2461 31.4082 63.3398 31.291V31.3027C63.3203 31.6621 63.2637 32.0098 63.1699 32.3457C63.0762 32.6816 62.8945 32.9961 62.625 33.2891C62.4023 33.5273 62.1074 33.7129 61.7402 33.8457C61.377 33.9746 60.9219 34.0391 60.375 34.0391ZM61.6699 31.25C61.4082 31.25 61.1797 31.1934 60.9844 31.0801C60.793 30.9629 60.6348 30.8105 60.5098 30.623C60.3809 30.4355 60.2852 30.2227 60.2227 29.9844C60.1602 29.7422 60.1289 29.4961 60.1289 29.2461C60.1289 28.9648 60.1641 28.7031 60.2344 28.4609C60.3047 28.2148 60.4082 28.002 60.5449 27.8223C60.6777 27.6465 60.8418 27.5078 61.0371 27.4062C61.2324 27.3047 61.457 27.2539 61.7109 27.2539C61.9336 27.2539 62.1426 27.3086 62.3379 27.418C62.5371 27.5273 62.7129 27.6836 62.8652 27.8867C63.0137 28.0938 63.1309 28.3457 63.2168 28.6426C63.3066 28.9395 63.3516 29.2773 63.3516 29.6562V30.0078C63.2852 30.1914 63.1934 30.3594 63.0762 30.5117C62.9629 30.6602 62.834 30.7891 62.6895 30.8984C62.541 31.0117 62.3789 31.0996 62.2031 31.1621C62.0312 31.2207 61.8535 31.25 61.6699 31.25ZM67.582 34.0391H67.4707V35.0059H67.582C68.2852 35.0059 68.8809 34.9102 69.3691 34.7188C69.8613 34.5234 70.2461 34.2695 70.5234 33.957C70.9844 33.4414 71.2852 32.8516 71.4258 32.1875C71.5664 31.5195 71.6367 30.8555 71.6367 30.1953V29.8027C71.6367 29.3379 71.5723 28.873 71.4434 28.4082C71.3145 27.9395 71.1211 27.5488 70.8633 27.2363C70.6445 26.9707 70.373 26.7578 70.0488 26.5977C69.7285 26.4336 69.3496 26.3516 68.9121 26.3516C68.4746 26.3516 68.0898 26.4316 67.7578 26.5918C67.4297 26.748 67.1562 26.959 66.9375 27.2246C66.7148 27.4941 66.5469 27.8086 66.4336 28.168C66.3242 28.5234 66.2695 28.9023 66.2695 29.3047C66.2695 29.6484 66.3164 29.9902 66.4102 30.3301C66.5039 30.6699 66.6504 30.9746 66.8496 31.2441C67.0488 31.5137 67.3008 31.7324 67.6055 31.9004C67.9141 32.0645 68.2793 32.1465 68.7012 32.1465C68.9199 32.1465 69.1211 32.125 69.3047 32.082C69.4922 32.0352 69.6621 31.9727 69.8145 31.8945C69.9668 31.8164 70.1035 31.7266 70.2246 31.625C70.3457 31.5195 70.4531 31.4082 70.5469 31.291V31.3027C70.5273 31.6621 70.4707 32.0098 70.377 32.3457C70.2832 32.6816 70.1016 32.9961 69.832 33.2891C69.6094 33.5273 69.3145 33.7129 68.9473 33.8457C68.584 33.9746 68.1289 34.0391 67.582 34.0391ZM68.877 31.25C68.6152 31.25 68.3867 31.1934 68.1914 31.0801C68 30.9629 67.8418 30.8105 67.7168 30.623C67.5879 30.4355 67.4922 30.2227 67.4297 29.9844C67.3672 29.7422 67.3359 29.4961 67.3359 29.2461C67.3359 28.9648 67.3711 28.7031 67.4414 28.4609C67.5117 28.2148 67.6152 28.002 67.752 27.8223C67.8848 27.6465 68.0488 27.5078 68.2441 27.4062C68.4395 27.3047 68.6641 27.2539 68.918 27.2539C69.1406 27.2539 69.3496 27.3086 69.5449 27.418C69.7441 27.5273 69.9199 27.6836 70.0723 27.8867C70.2207 28.0938 70.3379 28.3457 70.4238 28.6426C70.5137 28.9395 70.5586 29.2773 70.5586 29.6562V30.0078C70.4922 30.1914 70.4004 30.3594 70.2832 30.5117C70.1699 30.6602 70.041 30.7891 69.8965 30.8984C69.748 31.0117 69.5859 31.0996 69.4102 31.1621C69.2383 31.2207 69.0605 31.25 68.877 31.25ZM74.7891 34.0391H74.6777V35.0059H74.7891C75.4922 35.0059 76.0879 34.9102 76.5762 34.7188C77.0684 34.5234 77.4531 34.2695 77.7305 33.957C78.1914 33.4414 78.4922 32.8516 78.6328 32.1875C78.7734 31.5195 78.8438 30.8555 78.8438 30.1953V29.8027C78.8438 29.3379 78.7793 28.873 78.6504 28.4082C78.5215 27.9395 78.3281 27.5488 78.0703 27.2363C77.8516 26.9707 77.5801 26.7578 77.2559 26.5977C76.9355 26.4336 76.5566 26.3516 76.1191 26.3516C75.6816 26.3516 75.2969 26.4316 74.9648 26.5918C74.6367 26.748 74.3633 26.959 74.1445 27.2246C73.9219 27.4941 73.7539 27.8086 73.6406 28.168C73.5312 28.5234 73.4766 28.9023 73.4766 29.3047C73.4766 29.6484 73.5234 29.9902 73.6172 30.3301C73.7109 30.6699 73.8574 30.9746 74.0566 31.2441C74.2559 31.5137 74.5078 31.7324 74.8125 31.9004C75.1211 32.0645 75.4863 32.1465 75.9082 32.1465C76.127 32.1465 76.3281 32.125 76.5117 32.082C76.6992 32.0352 76.8691 31.9727 77.0215 31.8945C77.1738 31.8164 77.3105 31.7266 77.4316 31.625C77.5527 31.5195 77.6602 31.4082 77.7539 31.291V31.3027C77.7344 31.6621 77.6777 32.0098 77.584 32.3457C77.4902 32.6816 77.3086 32.9961 77.0391 33.2891C76.8164 33.5273 76.5215 33.7129 76.1543 33.8457C75.791 33.9746 75.3359 34.0391 74.7891 34.0391ZM76.084 31.25C75.8223 31.25 75.5938 31.1934 75.3984 31.0801C75.207 30.9629 75.0488 30.8105 74.9238 30.623C74.7949 30.4355 74.6992 30.2227 74.6367 29.9844C74.5742 29.7422 74.543 29.4961 74.543 29.2461C74.543 28.9648 74.5781 28.7031 74.6484 28.4609C74.7188 28.2148 74.8223 28.002 74.959 27.8223C75.0918 27.6465 75.2559 27.5078 75.4512 27.4062C75.6465 27.3047 75.8711 27.2539 76.125 27.2539C76.3477 27.2539 76.5566 27.3086 76.752 27.418C76.9512 27.5273 77.127 27.6836 77.2793 27.8867C77.4277 28.0938 77.5449 28.3457 77.6309 28.6426C77.7207 28.9395 77.7656 29.2773 77.7656 29.6562V30.0078C77.6992 30.1914 77.6074 30.3594 77.4902 30.5117C77.377 30.6602 77.248 30.7891 77.1035 30.8984C76.9551 31.0117 76.793 31.0996 76.6172 31.1621C76.4453 31.2207 76.2676 31.25 76.084 31.25ZM81.9961 34.0391H81.8848V35.0059H81.9961C82.6992 35.0059 83.2949 34.9102 83.7832 34.7188C84.2754 34.5234 84.6602 34.2695 84.9375 33.957C85.3984 33.4414 85.6992 32.8516 85.8398 32.1875C85.9805 31.5195 86.0508 30.8555 86.0508 30.1953V29.8027C86.0508 29.3379 85.9863 28.873 85.8574 28.4082C85.7285 27.9395 85.5352 27.5488 85.2773 27.2363C85.0586 26.9707 84.7871 26.7578 84.4629 26.5977C84.1426 26.4336 83.7637 26.3516 83.3262 26.3516C82.8887 26.3516 82.5039 26.4316 82.1719 26.5918C81.8438 26.748 81.5703 26.959 81.3516 27.2246C81.1289 27.4941 80.9609 27.8086 80.8477 28.168C80.7383 28.5234 80.6836 28.9023 80.6836 29.3047C80.6836 29.6484 80.7305 29.9902 80.8242 30.3301C80.918 30.6699 81.0645 30.9746 81.2637 31.2441C81.4629 31.5137 81.7148 31.7324 82.0195 31.9004C82.3281 32.0645 82.6934 32.1465 83.1152 32.1465C83.334 32.1465 83.5352 32.125 83.7188 32.082C83.9062 32.0352 84.0762 31.9727 84.2285 31.8945C84.3809 31.8164 84.5176 31.7266 84.6387 31.625C84.7598 31.5195 84.8672 31.4082 84.9609 31.291V31.3027C84.9414 31.6621 84.8848 32.0098 84.791 32.3457C84.6973 32.6816 84.5156 32.9961 84.2461 33.2891C84.0234 33.5273 83.7285 33.7129 83.3613 33.8457C82.998 33.9746 82.543 34.0391 81.9961 34.0391ZM83.291 31.25C83.0293 31.25 82.8008 31.1934 82.6055 31.0801C82.4141 30.9629 82.2559 30.8105 82.1309 30.623C82.002 30.4355 81.9062 30.2227 81.8438 29.9844C81.7812 29.7422 81.75 29.4961 81.75 29.2461C81.75 28.9648 81.7852 28.7031 81.8555 28.4609C81.9258 28.2148 82.0293 28.002 82.166 27.8223C82.2988 27.6465 82.4629 27.5078 82.6582 27.4062C82.8535 27.3047 83.0781 27.2539 83.332 27.2539C83.5547 27.2539 83.7637 27.3086 83.959 27.418C84.1582 27.5273 84.334 27.6836 84.4863 27.8867C84.6348 28.0938 84.752 28.3457 84.8379 28.6426C84.9277 28.9395 84.9727 29.2773 84.9727 29.6562V30.0078C84.9062 30.1914 84.8145 30.3594 84.6973 30.5117C84.584 30.6602 84.4551 30.7891 84.3105 30.8984C84.1621 31.0117 84 31.0996 83.8242 31.1621C83.6523 31.2207 83.4746 31.25 83.291 31.25ZM89.2031 34.0391H89.0918V35.0059H89.2031C89.9062 35.0059 90.502 34.9102 90.9902 34.7188C91.4824 34.5234 91.8672 34.2695 92.1445 33.957C92.6055 33.4414 92.9062 32.8516 93.0469 32.1875C93.1875 31.5195 93.2578 30.8555 93.2578 30.1953V29.8027C93.2578 29.3379 93.1934 28.873 93.0645 28.4082C92.9355 27.9395 92.7422 27.5488 92.4844 27.2363C92.2656 26.9707 91.9941 26.7578 91.6699 26.5977C91.3496 26.4336 90.9707 26.3516 90.5332 26.3516C90.0957 26.3516 89.7109 26.4316 89.3789 26.5918C89.0508 26.748 88.7773 26.959 88.5586 27.2246C88.3359 27.4941 88.168 27.8086 88.0547 28.168C87.9453 28.5234 87.8906 28.9023 87.8906 29.3047C87.8906 29.6484 87.9375 29.9902 88.0312 30.3301C88.125 30.6699 88.2715 30.9746 88.4707 31.2441C88.6699 31.5137 88.9219 31.7324 89.2266 31.9004C89.5352 32.0645 89.9004 32.1465 90.3223 32.1465C90.541 32.1465 90.7422 32.125 90.9258 32.082C91.1133 32.0352 91.2832 31.9727 91.4355 31.8945C91.5879 31.8164 91.7246 31.7266 91.8457 31.625C91.9668 31.5195 92.0742 31.4082 92.168 31.291V31.3027C92.1484 31.6621 92.0918 32.0098 91.998 32.3457C91.9043 32.6816 91.7227 32.9961 91.4531 33.2891C91.2305 33.5273 90.9355 33.7129 90.5684 33.8457C90.2051 33.9746 89.75 34.0391 89.2031 34.0391ZM90.498 31.25C90.2363 31.25 90.0078 31.1934 89.8125 31.0801C89.6211 30.9629 89.4629 30.8105 89.3379 30.623C89.209 30.4355 89.1133 30.2227 89.0508 29.9844C88.9883 29.7422 88.957 29.4961 88.957 29.2461C88.957 28.9648 88.9922 28.7031 89.0625 28.4609C89.1328 28.2148 89.2363 28.002 89.373 27.8223C89.5059 27.6465 89.6699 27.5078 89.8652 27.4062C90.0605 27.3047 90.2852 27.2539 90.5391 27.2539C90.7617 27.2539 90.9707 27.3086 91.166 27.418C91.3652 27.5273 91.541 27.6836 91.6934 27.8867C91.8418 28.0938 91.959 28.3457 92.0449 28.6426C92.1348 28.9395 92.1797 29.2773 92.1797 29.6562V30.0078C92.1133 30.1914 92.0215 30.3594 91.9043 30.5117C91.791 30.6602 91.6621 30.7891 91.5176 30.8984C91.3691 31.0117 91.207 31.0996 91.0312 31.1621C90.8594 31.2207 90.6816 31.25 90.498 31.25ZM96.4102 34.0391H96.2988V35.0059H96.4102C97.1133 35.0059 97.709 34.9102 98.1973 34.7188C98.6895 34.5234 99.0742 34.2695 99.3516 33.957C99.8125 33.4414 100.113 32.8516 100.254 32.1875C100.395 31.5195 100.465 30.8555 100.465 30.1953V29.8027C100.465 29.3379 100.4 28.873 100.271 28.4082C100.143 27.9395 99.9492 27.5488 99.6914 27.2363C99.4727 26.9707 99.2012 26.7578 98.877 26.5977C98.5566 26.4336 98.1777 26.3516 97.7402 26.3516C97.3027 26.3516 96.918 26.4316 96.5859 26.5918C96.2578 26.748 95.9844 26.959 95.7656 27.2246C95.543 27.4941 95.375 27.8086 95.2617 28.168C95.1523 28.5234 95.0977 28.9023 95.0977 29.3047C95.0977 29.6484 95.1445 29.9902 95.2383 30.3301C95.332 30.6699 95.4785 30.9746 95.6777 31.2441C95.877 31.5137 96.1289 31.7324 96.4336 31.9004C96.7422 32.0645 97.1074 32.1465 97.5293 32.1465C97.748 32.1465 97.9492 32.125 98.1328 32.082C98.3203 32.0352 98.4902 31.9727 98.6426 31.8945C98.7949 31.8164 98.9316 31.7266 99.0527 31.625C99.1738 31.5195 99.2812 31.4082 99.375 31.291V31.3027C99.3555 31.6621 99.2988 32.0098 99.2051 32.3457C99.1113 32.6816 98.9297 32.9961 98.6602 33.2891C98.4375 33.5273 98.1426 33.7129 97.7754 33.8457C97.4121 33.9746 96.957 34.0391 96.4102 34.0391ZM97.7051 31.25C97.4434 31.25 97.2148 31.1934 97.0195 31.0801C96.8281 30.9629 96.6699 30.8105 96.5449 30.623C96.416 30.4355 96.3203 30.2227 96.2578 29.9844C96.1953 29.7422 96.1641 29.4961 96.1641 29.2461C96.1641 28.9648 96.1992 28.7031 96.2695 28.4609C96.3398 28.2148 96.4434 28.002 96.5801 27.8223C96.7129 27.6465 96.877 27.5078 97.0723 27.4062C97.2676 27.3047 97.4922 27.2539 97.7461 27.2539C97.9688 27.2539 98.1777 27.3086 98.373 27.418C98.5723 27.5273 98.748 27.6836 98.9004 27.8867C99.0488 28.0938 99.166 28.3457 99.252 28.6426C99.3418 28.9395 99.3867 29.2773 99.3867 29.6562V30.0078C99.3203 30.1914 99.2285 30.3594 99.1113 30.5117C98.998 30.6602 98.8691 30.7891 98.7246 30.8984C98.5762 31.0117 98.4141 31.0996 98.2383 31.1621C98.0664 31.2207 97.8887 31.25 97.7051 31.25ZM103.617 34.0391H103.506V35.0059H103.617C104.32 35.0059 104.916 34.9102 105.404 34.7188C105.896 34.5234 106.281 34.2695 106.559 33.957C107.02 33.4414 107.32 32.8516 107.461 32.1875C107.602 31.5195 107.672 30.8555 107.672 30.1953V29.8027C107.672 29.3379 107.607 28.873 107.479 28.4082C107.35 27.9395 107.156 27.5488 106.898 27.2363C106.68 26.9707 106.408 26.7578 106.084 26.5977C105.764 26.4336 105.385 26.3516 104.947 26.3516C104.51 26.3516 104.125 26.4316 103.793 26.5918C103.465 26.748 103.191 26.959 102.973 27.2246C102.75 27.4941 102.582 27.8086 102.469 28.168C102.359 28.5234 102.305 28.9023 102.305 29.3047C102.305 29.6484 102.352 29.9902 102.445 30.3301C102.539 30.6699 102.686 30.9746 102.885 31.2441C103.084 31.5137 103.336 31.7324 103.641 31.9004C103.949 32.0645 104.314 32.1465 104.736 32.1465C104.955 32.1465 105.156 32.125 105.34 32.082C105.527 32.0352 105.697 31.9727 105.85 31.8945C106.002 31.8164 106.139 31.7266 106.26 31.625C106.381 31.5195 106.488 31.4082 106.582 31.291V31.3027C106.562 31.6621 106.506 32.0098 106.412 32.3457C106.318 32.6816 106.137 32.9961 105.867 33.2891C105.645 33.5273 105.35 33.7129 104.982 33.8457C104.619 33.9746 104.164 34.0391 103.617 34.0391ZM104.912 31.25C104.65 31.25 104.422 31.1934 104.227 31.0801C104.035 30.9629 103.877 30.8105 103.752 30.623C103.623 30.4355 103.527 30.2227 103.465 29.9844C103.402 29.7422 103.371 29.4961 103.371 29.2461C103.371 28.9648 103.406 28.7031 103.477 28.4609C103.547 28.2148 103.65 28.002 103.787 27.8223C103.92 27.6465 104.084 27.5078 104.279 27.4062C104.475 27.3047 104.699 27.2539 104.953 27.2539C105.176 27.2539 105.385 27.3086 105.58 27.418C105.779 27.5273 105.955 27.6836 106.107 27.8867C106.256 28.0938 106.373 28.3457 106.459 28.6426C106.549 28.9395 106.594 29.2773 106.594 29.6562V30.0078C106.527 30.1914 106.436 30.3594 106.318 30.5117C106.205 30.6602 106.076 30.7891 105.932 30.8984C105.783 31.0117 105.621 31.0996 105.445 31.1621C105.273 31.2207 105.096 31.25 104.912 31.25ZM110.824 34.0391H110.713V35.0059H110.824C111.527 35.0059 112.123 34.9102 112.611 34.7188C113.104 34.5234 113.488 34.2695 113.766 33.957C114.227 33.4414 114.527 32.8516 114.668 32.1875C114.809 31.5195 114.879 30.8555 114.879 30.1953V29.8027C114.879 29.3379 114.814 28.873 114.686 28.4082C114.557 27.9395 114.363 27.5488 114.105 27.2363C113.887 26.9707 113.615 26.7578 113.291 26.5977C112.971 26.4336 112.592 26.3516 112.154 26.3516C111.717 26.3516 111.332 26.4316 111 26.5918C110.672 26.748 110.398 26.959 110.18 27.2246C109.957 27.4941 109.789 27.8086 109.676 28.168C109.566 28.5234 109.512 28.9023 109.512 29.3047C109.512 29.6484 109.559 29.9902 109.652 30.3301C109.746 30.6699 109.893 30.9746 110.092 31.2441C110.291 31.5137 110.543 31.7324 110.848 31.9004C111.156 32.0645 111.521 32.1465 111.943 32.1465C112.162 32.1465 112.363 32.125 112.547 32.082C112.734 32.0352 112.904 31.9727 113.057 31.8945C113.209 31.8164 113.346 31.7266 113.467 31.625C113.588 31.5195 113.695 31.4082 113.789 31.291V31.3027C113.77 31.6621 113.713 32.0098 113.619 32.3457C113.525 32.6816 113.344 32.9961 113.074 33.2891C112.852 33.5273 112.557 33.7129 112.189 33.8457C111.826 33.9746 111.371 34.0391 110.824 34.0391ZM112.119 31.25C111.857 31.25 111.629 31.1934 111.434 31.0801C111.242 30.9629 111.084 30.8105 110.959 30.623C110.83 30.4355 110.734 30.2227 110.672 29.9844C110.609 29.7422 110.578 29.4961 110.578 29.2461C110.578 28.9648 110.613 28.7031 110.684 28.4609C110.754 28.2148 110.857 28.002 110.994 27.8223C111.127 27.6465 111.291 27.5078 111.486 27.4062C111.682 27.3047 111.906 27.2539 112.16 27.2539C112.383 27.2539 112.592 27.3086 112.787 27.418C112.986 27.5273 113.162 27.6836 113.314 27.8867C113.463 28.0938 113.58 28.3457 113.666 28.6426C113.756 28.9395 113.801 29.2773 113.801 29.6562V30.0078C113.734 30.1914 113.643 30.3594 113.525 30.5117C113.412 30.6602 113.283 30.7891 113.139 30.8984C112.99 31.0117 112.828 31.0996 112.652 31.1621C112.48 31.2207 112.303 31.25 112.119 31.25Z" fill="black"/>
<path d="M128.835 51.7598H128.807V52.0015H128.835C129.011 52.0015 129.16 51.9775 129.282 51.9297C129.405 51.8809 129.501 51.8174 129.57 51.7393C129.686 51.6104 129.761 51.4629 129.796 51.2969C129.831 51.1299 129.849 50.9639 129.849 50.7988V50.7007C129.849 50.5845 129.833 50.4683 129.8 50.3521C129.768 50.2349 129.72 50.1372 129.655 50.0591C129.601 49.9927 129.533 49.9395 129.452 49.8994C129.372 49.8584 129.277 49.8379 129.167 49.8379C129.058 49.8379 128.962 49.8579 128.879 49.8979C128.797 49.937 128.729 49.9897 128.674 50.0562C128.618 50.1235 128.576 50.2021 128.548 50.292C128.521 50.3809 128.507 50.4756 128.507 50.5762C128.507 50.6621 128.519 50.7476 128.542 50.8325C128.565 50.9175 128.602 50.9937 128.652 51.061C128.702 51.1284 128.765 51.1831 128.841 51.2251C128.918 51.2661 129.009 51.2866 129.115 51.2866C129.169 51.2866 129.22 51.2812 129.266 51.2705C129.312 51.2588 129.355 51.2432 129.393 51.2236C129.431 51.2041 129.465 51.1816 129.496 51.1562C129.526 51.1299 129.553 51.1021 129.576 51.0728V51.0757C129.571 51.1655 129.557 51.2524 129.534 51.3364C129.51 51.4204 129.465 51.499 129.397 51.5723C129.342 51.6318 129.268 51.6782 129.176 51.7114C129.085 51.7437 128.972 51.7598 128.835 51.7598ZM129.159 51.0625C129.093 51.0625 129.036 51.0483 128.987 51.02C128.939 50.9907 128.9 50.9526 128.869 50.9058C128.836 50.8589 128.812 50.8057 128.797 50.7461C128.781 50.6855 128.773 50.624 128.773 50.5615C128.773 50.4912 128.782 50.4258 128.8 50.3652C128.817 50.3037 128.843 50.2505 128.877 50.2056C128.911 50.1616 128.952 50.127 129 50.1016C129.049 50.0762 129.105 50.0635 129.169 50.0635C129.225 50.0635 129.277 50.0771 129.326 50.1045C129.375 50.1318 129.419 50.1709 129.458 50.2217C129.495 50.2734 129.524 50.3364 129.545 50.4106C129.568 50.4849 129.579 50.5693 129.579 50.6641V50.752C129.562 50.7979 129.54 50.8398 129.51 50.8779C129.482 50.915 129.45 50.9473 129.414 50.9746C129.376 51.0029 129.336 51.0249 129.292 51.0405C129.249 51.0552 129.205 51.0625 129.159 51.0625ZM130.637 51.7598H130.609V52.0015H130.637C130.812 52.0015 130.961 51.9775 131.083 51.9297C131.207 51.8809 131.303 51.8174 131.372 51.7393C131.487 51.6104 131.562 51.4629 131.598 51.2969C131.633 51.1299 131.65 50.9639 131.65 50.7988V50.7007C131.65 50.5845 131.634 50.4683 131.602 50.3521C131.57 50.2349 131.521 50.1372 131.457 50.0591C131.402 49.9927 131.334 49.9395 131.253 49.8994C131.173 49.8584 131.079 49.8379 130.969 49.8379C130.86 49.8379 130.764 49.8579 130.681 49.8979C130.599 49.937 130.53 49.9897 130.476 50.0562C130.42 50.1235 130.378 50.2021 130.35 50.292C130.322 50.3809 130.309 50.4756 130.309 50.5762C130.309 50.6621 130.32 50.7476 130.344 50.8325C130.367 50.9175 130.404 50.9937 130.454 51.061C130.503 51.1284 130.566 51.1831 130.643 51.2251C130.72 51.2661 130.811 51.2866 130.917 51.2866C130.971 51.2866 131.021 51.2812 131.067 51.2705C131.114 51.2588 131.157 51.2432 131.195 51.2236C131.233 51.2041 131.267 51.1816 131.297 51.1562C131.328 51.1299 131.354 51.1021 131.378 51.0728V51.0757C131.373 51.1655 131.359 51.2524 131.335 51.3364C131.312 51.4204 131.267 51.499 131.199 51.5723C131.144 51.6318 131.07 51.6782 130.978 51.7114C130.887 51.7437 130.773 51.7598 130.637 51.7598ZM130.96 51.0625C130.895 51.0625 130.838 51.0483 130.789 51.02C130.741 50.9907 130.702 50.9526 130.67 50.9058C130.638 50.8589 130.614 50.8057 130.599 50.7461C130.583 50.6855 130.575 50.624 130.575 50.5615C130.575 50.4912 130.584 50.4258 130.602 50.3652C130.619 50.3037 130.645 50.2505 130.679 50.2056C130.712 50.1616 130.753 50.127 130.802 50.1016C130.851 50.0762 130.907 50.0635 130.971 50.0635C131.026 50.0635 131.079 50.0771 131.127 50.1045C131.177 50.1318 131.221 50.1709 131.259 50.2217C131.296 50.2734 131.326 50.3364 131.347 50.4106C131.37 50.4849 131.381 50.5693 131.381 50.6641V50.752C131.364 50.7979 131.341 50.8398 131.312 50.8779C131.284 50.915 131.251 50.9473 131.215 50.9746C131.178 51.0029 131.138 51.0249 131.094 51.0405C131.051 51.0552 131.006 51.0625 130.96 51.0625ZM132.438 51.7598H132.411V52.0015H132.438C132.614 52.0015 132.763 51.9775 132.885 51.9297C133.008 51.8809 133.104 51.8174 133.174 51.7393C133.289 51.6104 133.364 51.4629 133.399 51.2969C133.435 51.1299 133.452 50.9639 133.452 50.7988V50.7007C133.452 50.5845 133.436 50.4683 133.404 50.3521C133.372 50.2349 133.323 50.1372 133.259 50.0591C133.204 49.9927 133.136 49.9395 133.055 49.8994C132.975 49.8584 132.88 49.8379 132.771 49.8379C132.662 49.8379 132.565 49.8579 132.482 49.8979C132.4 49.937 132.332 49.9897 132.277 50.0562C132.222 50.1235 132.18 50.2021 132.151 50.292C132.124 50.3809 132.11 50.4756 132.11 50.5762C132.11 50.6621 132.122 50.7476 132.146 50.8325C132.169 50.9175 132.206 50.9937 132.255 51.061C132.305 51.1284 132.368 51.1831 132.444 51.2251C132.521 51.2661 132.613 51.2866 132.718 51.2866C132.773 51.2866 132.823 51.2812 132.869 51.2705C132.916 51.2588 132.958 51.2432 132.997 51.2236C133.035 51.2041 133.069 51.1816 133.099 51.1562C133.129 51.1299 133.156 51.1021 133.18 51.0728V51.0757C133.175 51.1655 133.161 51.2524 133.137 51.3364C133.114 51.4204 133.068 51.499 133.001 51.5723C132.945 51.6318 132.872 51.6782 132.78 51.7114C132.689 51.7437 132.575 51.7598 132.438 51.7598ZM132.762 51.0625C132.697 51.0625 132.64 51.0483 132.591 51.02C132.543 50.9907 132.503 50.9526 132.472 50.9058C132.44 50.8589 132.416 50.8057 132.4 50.7461C132.385 50.6855 132.377 50.624 132.377 50.5615C132.377 50.4912 132.386 50.4258 132.403 50.3652C132.421 50.3037 132.447 50.2505 132.481 50.2056C132.514 50.1616 132.555 50.127 132.604 50.1016C132.653 50.0762 132.709 50.0635 132.772 50.0635C132.828 50.0635 132.88 50.0771 132.929 50.1045C132.979 50.1318 133.023 50.1709 133.061 50.2217C133.098 50.2734 133.127 50.3364 133.149 50.4106C133.171 50.4849 133.183 50.5693 133.183 50.6641V50.752C133.166 50.7979 133.143 50.8398 133.114 50.8779C133.085 50.915 133.053 50.9473 133.017 50.9746C132.98 51.0029 132.939 51.0249 132.896 51.0405C132.853 51.0552 132.808 51.0625 132.762 51.0625ZM134.24 51.7598H134.212V52.0015H134.24C134.416 52.0015 134.565 51.9775 134.687 51.9297C134.81 51.8809 134.906 51.8174 134.976 51.7393C135.091 51.6104 135.166 51.4629 135.201 51.2969C135.236 51.1299 135.254 50.9639 135.254 50.7988V50.7007C135.254 50.5845 135.238 50.4683 135.206 50.3521C135.173 50.2349 135.125 50.1372 135.061 50.0591C135.006 49.9927 134.938 49.9395 134.857 49.8994C134.777 49.8584 134.682 49.8379 134.573 49.8379C134.463 49.8379 134.367 49.8579 134.284 49.8979C134.202 49.937 134.134 49.9897 134.079 50.0562C134.023 50.1235 133.981 50.2021 133.953 50.292C133.926 50.3809 133.912 50.4756 133.912 50.5762C133.912 50.6621 133.924 50.7476 133.947 50.8325C133.971 50.9175 134.007 50.9937 134.057 51.061C134.107 51.1284 134.17 51.1831 134.246 51.2251C134.323 51.2661 134.415 51.2866 134.52 51.2866C134.575 51.2866 134.625 51.2812 134.671 51.2705C134.718 51.2588 134.76 51.2432 134.798 51.2236C134.836 51.2041 134.871 51.1816 134.901 51.1562C134.931 51.1299 134.958 51.1021 134.981 51.0728V51.0757C134.977 51.1655 134.962 51.2524 134.939 51.3364C134.916 51.4204 134.87 51.499 134.803 51.5723C134.747 51.6318 134.673 51.6782 134.582 51.7114C134.491 51.7437 134.377 51.7598 134.24 51.7598ZM134.564 51.0625C134.499 51.0625 134.441 51.0483 134.393 51.02C134.345 50.9907 134.305 50.9526 134.274 50.9058C134.242 50.8589 134.218 50.8057 134.202 50.7461C134.187 50.6855 134.179 50.624 134.179 50.5615C134.179 50.4912 134.188 50.4258 134.205 50.3652C134.223 50.3037 134.249 50.2505 134.283 50.2056C134.316 50.1616 134.357 50.127 134.406 50.1016C134.455 50.0762 134.511 50.0635 134.574 50.0635C134.63 50.0635 134.682 50.0771 134.731 50.1045C134.781 50.1318 134.825 50.1709 134.863 50.2217C134.9 50.2734 134.929 50.3364 134.951 50.4106C134.973 50.4849 134.984 50.5693 134.984 50.6641V50.752C134.968 50.7979 134.945 50.8398 134.916 50.8779C134.887 50.915 134.855 50.9473 134.819 50.9746C134.782 51.0029 134.741 51.0249 134.697 51.0405C134.654 51.0552 134.61 51.0625 134.564 51.0625ZM136.042 51.7598H136.014V52.0015H136.042C136.218 52.0015 136.367 51.9775 136.489 51.9297C136.612 51.8809 136.708 51.8174 136.777 51.7393C136.893 51.6104 136.968 51.4629 137.003 51.2969C137.038 51.1299 137.056 50.9639 137.056 50.7988V50.7007C137.056 50.5845 137.04 50.4683 137.007 50.3521C136.975 50.2349 136.927 50.1372 136.862 50.0591C136.808 49.9927 136.74 49.9395 136.659 49.8994C136.579 49.8584 136.484 49.8379 136.375 49.8379C136.265 49.8379 136.169 49.8579 136.086 49.8979C136.004 49.937 135.936 49.9897 135.881 50.0562C135.825 50.1235 135.783 50.2021 135.755 50.292C135.728 50.3809 135.714 50.4756 135.714 50.5762C135.714 50.6621 135.726 50.7476 135.749 50.8325C135.772 50.9175 135.809 50.9937 135.859 51.061C135.909 51.1284 135.972 51.1831 136.048 51.2251C136.125 51.2661 136.216 51.2866 136.322 51.2866C136.376 51.2866 136.427 51.2812 136.473 51.2705C136.52 51.2588 136.562 51.2432 136.6 51.2236C136.638 51.2041 136.672 51.1816 136.703 51.1562C136.733 51.1299 136.76 51.1021 136.783 51.0728V51.0757C136.778 51.1655 136.764 51.2524 136.741 51.3364C136.717 51.4204 136.672 51.499 136.604 51.5723C136.549 51.6318 136.475 51.6782 136.383 51.7114C136.292 51.7437 136.179 51.7598 136.042 51.7598ZM136.366 51.0625C136.3 51.0625 136.243 51.0483 136.194 51.02C136.146 50.9907 136.107 50.9526 136.076 50.9058C136.043 50.8589 136.02 50.8057 136.004 50.7461C135.988 50.6855 135.98 50.624 135.98 50.5615C135.98 50.4912 135.989 50.4258 136.007 50.3652C136.024 50.3037 136.05 50.2505 136.084 50.2056C136.118 50.1616 136.159 50.127 136.208 50.1016C136.256 50.0762 136.312 50.0635 136.376 50.0635C136.432 50.0635 136.484 50.0771 136.533 50.1045C136.583 50.1318 136.626 50.1709 136.665 50.2217C136.702 50.2734 136.731 50.3364 136.752 50.4106C136.775 50.4849 136.786 50.5693 136.786 50.6641V50.752C136.77 50.7979 136.747 50.8398 136.717 50.8779C136.689 50.915 136.657 50.9473 136.621 50.9746C136.583 51.0029 136.543 51.0249 136.499 51.0405C136.456 51.0552 136.412 51.0625 136.366 51.0625ZM137.844 51.7598H137.816V52.0015H137.844C138.02 52.0015 138.168 51.9775 138.291 51.9297C138.414 51.8809 138.51 51.8174 138.579 51.7393C138.694 51.6104 138.77 51.4629 138.805 51.2969C138.84 51.1299 138.857 50.9639 138.857 50.7988V50.7007C138.857 50.5845 138.841 50.4683 138.809 50.3521C138.777 50.2349 138.729 50.1372 138.664 50.0591C138.609 49.9927 138.542 49.9395 138.46 49.8994C138.38 49.8584 138.286 49.8379 138.176 49.8379C138.067 49.8379 137.971 49.8579 137.888 49.8979C137.806 49.937 137.737 49.9897 137.683 50.0562C137.627 50.1235 137.585 50.2021 137.557 50.292C137.529 50.3809 137.516 50.4756 137.516 50.5762C137.516 50.6621 137.527 50.7476 137.551 50.8325C137.574 50.9175 137.611 50.9937 137.661 51.061C137.71 51.1284 137.773 51.1831 137.85 51.2251C137.927 51.2661 138.018 51.2866 138.124 51.2866C138.178 51.2866 138.229 51.2812 138.274 51.2705C138.321 51.2588 138.364 51.2432 138.402 51.2236C138.44 51.2041 138.474 51.1816 138.504 51.1562C138.535 51.1299 138.562 51.1021 138.585 51.0728V51.0757C138.58 51.1655 138.566 51.2524 138.542 51.3364C138.519 51.4204 138.474 51.499 138.406 51.5723C138.351 51.6318 138.277 51.6782 138.185 51.7114C138.094 51.7437 137.98 51.7598 137.844 51.7598ZM138.167 51.0625C138.102 51.0625 138.045 51.0483 137.996 51.02C137.948 50.9907 137.909 50.9526 137.877 50.9058C137.845 50.8589 137.821 50.8057 137.806 50.7461C137.79 50.6855 137.782 50.624 137.782 50.5615C137.782 50.4912 137.791 50.4258 137.809 50.3652C137.826 50.3037 137.852 50.2505 137.886 50.2056C137.919 50.1616 137.96 50.127 138.009 50.1016C138.058 50.0762 138.114 50.0635 138.178 50.0635C138.233 50.0635 138.286 50.0771 138.334 50.1045C138.384 50.1318 138.428 50.1709 138.466 50.2217C138.503 50.2734 138.533 50.3364 138.554 50.4106C138.577 50.4849 138.588 50.5693 138.588 50.6641V50.752C138.571 50.7979 138.548 50.8398 138.519 50.8779C138.491 50.915 138.458 50.9473 138.422 50.9746C138.385 51.0029 138.345 51.0249 138.301 51.0405C138.258 51.0552 138.213 51.0625 138.167 51.0625ZM139.646 51.7598H139.618V52.0015H139.646C139.821 52.0015 139.97 51.9775 140.092 51.9297C140.215 51.8809 140.312 51.8174 140.381 51.7393C140.496 51.6104 140.571 51.4629 140.606 51.2969C140.642 51.1299 140.659 50.9639 140.659 50.7988V50.7007C140.659 50.5845 140.643 50.4683 140.611 50.3521C140.579 50.2349 140.53 50.1372 140.466 50.0591C140.411 49.9927 140.343 49.9395 140.262 49.8994C140.182 49.8584 140.087 49.8379 139.978 49.8379C139.869 49.8379 139.772 49.8579 139.689 49.8979C139.607 49.937 139.539 49.9897 139.484 50.0562C139.429 50.1235 139.387 50.2021 139.358 50.292C139.331 50.3809 139.317 50.4756 139.317 50.5762C139.317 50.6621 139.329 50.7476 139.353 50.8325C139.376 50.9175 139.413 50.9937 139.462 51.061C139.512 51.1284 139.575 51.1831 139.651 51.2251C139.729 51.2661 139.82 51.2866 139.925 51.2866C139.98 51.2866 140.03 51.2812 140.076 51.2705C140.123 51.2588 140.166 51.2432 140.204 51.2236C140.242 51.2041 140.276 51.1816 140.306 51.1562C140.336 51.1299 140.363 51.1021 140.387 51.0728V51.0757C140.382 51.1655 140.368 51.2524 140.344 51.3364C140.321 51.4204 140.275 51.499 140.208 51.5723C140.152 51.6318 140.079 51.6782 139.987 51.7114C139.896 51.7437 139.782 51.7598 139.646 51.7598ZM139.969 51.0625C139.904 51.0625 139.847 51.0483 139.798 51.02C139.75 50.9907 139.71 50.9526 139.679 50.9058C139.647 50.8589 139.623 50.8057 139.607 50.7461C139.592 50.6855 139.584 50.624 139.584 50.5615C139.584 50.4912 139.593 50.4258 139.61 50.3652C139.628 50.3037 139.654 50.2505 139.688 50.2056C139.721 50.1616 139.762 50.127 139.811 50.1016C139.86 50.0762 139.916 50.0635 139.979 50.0635C140.035 50.0635 140.087 50.0771 140.136 50.1045C140.186 50.1318 140.23 50.1709 140.268 50.2217C140.305 50.2734 140.334 50.3364 140.356 50.4106C140.378 50.4849 140.39 50.5693 140.39 50.6641V50.752C140.373 50.7979 140.35 50.8398 140.321 50.8779C140.292 50.915 140.26 50.9473 140.224 50.9746C140.187 51.0029 140.146 51.0249 140.103 51.0405C140.06 51.0552 140.015 51.0625 139.969 51.0625ZM141.447 51.7598H141.419V52.0015H141.447C141.623 52.0015 141.772 51.9775 141.894 51.9297C142.017 51.8809 142.113 51.8174 142.183 51.7393C142.298 51.6104 142.373 51.4629 142.408 51.2969C142.443 51.1299 142.461 50.9639 142.461 50.7988V50.7007C142.461 50.5845 142.445 50.4683 142.413 50.3521C142.38 50.2349 142.332 50.1372 142.268 50.0591C142.213 49.9927 142.145 49.9395 142.064 49.8994C141.984 49.8584 141.889 49.8379 141.78 49.8379C141.67 49.8379 141.574 49.8579 141.491 49.8979C141.409 49.937 141.341 49.9897 141.286 50.0562C141.23 50.1235 141.188 50.2021 141.16 50.292C141.133 50.3809 141.119 50.4756 141.119 50.5762C141.119 50.6621 141.131 50.7476 141.154 50.8325C141.178 50.9175 141.214 50.9937 141.264 51.061C141.314 51.1284 141.377 51.1831 141.453 51.2251C141.53 51.2661 141.622 51.2866 141.727 51.2866C141.782 51.2866 141.832 51.2812 141.878 51.2705C141.925 51.2588 141.967 51.2432 142.005 51.2236C142.043 51.2041 142.078 51.1816 142.108 51.1562C142.138 51.1299 142.165 51.1021 142.188 51.0728V51.0757C142.184 51.1655 142.169 51.2524 142.146 51.3364C142.123 51.4204 142.077 51.499 142.01 51.5723C141.954 51.6318 141.88 51.6782 141.789 51.7114C141.698 51.7437 141.584 51.7598 141.447 51.7598ZM141.771 51.0625C141.706 51.0625 141.648 51.0483 141.6 51.02C141.552 50.9907 141.512 50.9526 141.481 50.9058C141.449 50.8589 141.425 50.8057 141.409 50.7461C141.394 50.6855 141.386 50.624 141.386 50.5615C141.386 50.4912 141.395 50.4258 141.412 50.3652C141.43 50.3037 141.456 50.2505 141.49 50.2056C141.523 50.1616 141.564 50.127 141.613 50.1016C141.662 50.0762 141.718 50.0635 141.781 50.0635C141.837 50.0635 141.889 50.0771 141.938 50.1045C141.988 50.1318 142.032 50.1709 142.07 50.2217C142.107 50.2734 142.136 50.3364 142.158 50.4106C142.18 50.4849 142.191 50.5693 142.191 50.6641V50.752C142.175 50.7979 142.152 50.8398 142.123 50.8779C142.094 50.915 142.062 50.9473 142.026 50.9746C141.989 51.0029 141.948 51.0249 141.904 51.0405C141.861 51.0552 141.817 51.0625 141.771 51.0625ZM143.249 51.7598H143.221V52.0015H143.249C143.425 52.0015 143.574 51.9775 143.696 51.9297C143.819 51.8809 143.915 51.8174 143.984 51.7393C144.1 51.6104 144.175 51.4629 144.21 51.2969C144.245 51.1299 144.263 50.9639 144.263 50.7988V50.7007C144.263 50.5845 144.247 50.4683 144.214 50.3521C144.182 50.2349 144.134 50.1372 144.069 50.0591C144.015 49.9927 143.947 49.9395 143.866 49.8994C143.786 49.8584 143.691 49.8379 143.582 49.8379C143.472 49.8379 143.376 49.8579 143.293 49.8979C143.211 49.937 143.143 49.9897 143.088 50.0562C143.032 50.1235 142.99 50.2021 142.962 50.292C142.935 50.3809 142.921 50.4756 142.921 50.5762C142.921 50.6621 142.933 50.7476 142.956 50.8325C142.979 50.9175 143.016 50.9937 143.066 51.061C143.116 51.1284 143.179 51.1831 143.255 51.2251C143.332 51.2661 143.423 51.2866 143.529 51.2866C143.583 51.2866 143.634 51.2812 143.68 51.2705C143.727 51.2588 143.769 51.2432 143.807 51.2236C143.845 51.2041 143.879 51.1816 143.91 51.1562C143.94 51.1299 143.967 51.1021 143.99 51.0728V51.0757C143.985 51.1655 143.971 51.2524 143.948 51.3364C143.924 51.4204 143.879 51.499 143.812 51.5723C143.756 51.6318 143.682 51.6782 143.59 51.7114C143.5 51.7437 143.386 51.7598 143.249 51.7598ZM143.573 51.0625C143.507 51.0625 143.45 51.0483 143.401 51.02C143.354 50.9907 143.314 50.9526 143.283 50.9058C143.25 50.8589 143.227 50.8057 143.211 50.7461C143.195 50.6855 143.188 50.624 143.188 50.5615C143.188 50.4912 143.196 50.4258 143.214 50.3652C143.231 50.3037 143.257 50.2505 143.292 50.2056C143.325 50.1616 143.366 50.127 143.415 50.1016C143.463 50.0762 143.52 50.0635 143.583 50.0635C143.639 50.0635 143.691 50.0771 143.74 50.1045C143.79 50.1318 143.833 50.1709 143.872 50.2217C143.909 50.2734 143.938 50.3364 143.959 50.4106C143.982 50.4849 143.993 50.5693 143.993 50.6641V50.752C143.977 50.7979 143.954 50.8398 143.924 50.8779C143.896 50.915 143.864 50.9473 143.828 50.9746C143.791 51.0029 143.75 51.0249 143.706 51.0405C143.663 51.0552 143.619 51.0625 143.573 51.0625ZM145.051 51.7598H145.023V52.0015H145.051C145.227 52.0015 145.375 51.9775 145.498 51.9297C145.621 51.8809 145.717 51.8174 145.786 51.7393C145.901 51.6104 145.977 51.4629 146.012 51.2969C146.047 51.1299 146.064 50.9639 146.064 50.7988V50.7007C146.064 50.5845 146.048 50.4683 146.016 50.3521C145.984 50.2349 145.936 50.1372 145.871 50.0591C145.816 49.9927 145.749 49.9395 145.667 49.8994C145.587 49.8584 145.493 49.8379 145.383 49.8379C145.274 49.8379 145.178 49.8579 145.095 49.8979C145.013 49.937 144.944 49.9897 144.89 50.0562C144.834 50.1235 144.792 50.2021 144.764 50.292C144.736 50.3809 144.723 50.4756 144.723 50.5762C144.723 50.6621 144.734 50.7476 144.758 50.8325C144.781 50.9175 144.818 50.9937 144.868 51.061C144.917 51.1284 144.98 51.1831 145.057 51.2251C145.134 51.2661 145.225 51.2866 145.331 51.2866C145.385 51.2866 145.436 51.2812 145.481 51.2705C145.528 51.2588 145.571 51.2432 145.609 51.2236C145.647 51.2041 145.681 51.1816 145.711 51.1562C145.742 51.1299 145.769 51.1021 145.792 51.0728V51.0757C145.787 51.1655 145.773 51.2524 145.75 51.3364C145.726 51.4204 145.681 51.499 145.613 51.5723C145.558 51.6318 145.484 51.6782 145.392 51.7114C145.301 51.7437 145.188 51.7598 145.051 51.7598ZM145.375 51.0625C145.309 51.0625 145.252 51.0483 145.203 51.02C145.155 50.9907 145.116 50.9526 145.084 50.9058C145.052 50.8589 145.028 50.8057 145.013 50.7461C144.997 50.6855 144.989 50.624 144.989 50.5615C144.989 50.4912 144.998 50.4258 145.016 50.3652C145.033 50.3037 145.059 50.2505 145.093 50.2056C145.126 50.1616 145.167 50.127 145.216 50.1016C145.265 50.0762 145.321 50.0635 145.385 50.0635C145.44 50.0635 145.493 50.0771 145.542 50.1045C145.591 50.1318 145.635 50.1709 145.673 50.2217C145.71 50.2734 145.74 50.3364 145.761 50.4106C145.784 50.4849 145.795 50.5693 145.795 50.6641V50.752C145.778 50.7979 145.755 50.8398 145.726 50.8779C145.698 50.915 145.666 50.9473 145.629 50.9746C145.592 51.0029 145.552 51.0249 145.508 51.0405C145.465 51.0552 145.42 51.0625 145.375 51.0625ZM146.853 51.7598H146.825V52.0015H146.853C147.028 52.0015 147.177 51.9775 147.299 51.9297C147.422 51.8809 147.519 51.8174 147.588 51.7393C147.703 51.6104 147.778 51.4629 147.813 51.2969C147.849 51.1299 147.866 50.9639 147.866 50.7988V50.7007C147.866 50.5845 147.85 50.4683 147.818 50.3521C147.786 50.2349 147.737 50.1372 147.673 50.0591C147.618 49.9927 147.55 49.9395 147.469 49.8994C147.389 49.8584 147.294 49.8379 147.185 49.8379C147.076 49.8379 146.979 49.8579 146.896 49.8979C146.814 49.937 146.746 49.9897 146.691 50.0562C146.636 50.1235 146.594 50.2021 146.565 50.292C146.538 50.3809 146.524 50.4756 146.524 50.5762C146.524 50.6621 146.536 50.7476 146.56 50.8325C146.583 50.9175 146.62 50.9937 146.669 51.061C146.719 51.1284 146.782 51.1831 146.858 51.2251C146.936 51.2661 147.027 51.2866 147.132 51.2866C147.187 51.2866 147.237 51.2812 147.283 51.2705C147.33 51.2588 147.373 51.2432 147.411 51.2236C147.449 51.2041 147.483 51.1816 147.513 51.1562C147.543 51.1299 147.57 51.1021 147.594 51.0728V51.0757C147.589 51.1655 147.575 51.2524 147.551 51.3364C147.528 51.4204 147.482 51.499 147.415 51.5723C147.359 51.6318 147.286 51.6782 147.194 51.7114C147.103 51.7437 146.989 51.7598 146.853 51.7598ZM147.176 51.0625C147.111 51.0625 147.054 51.0483 147.005 51.02C146.957 50.9907 146.917 50.9526 146.886 50.9058C146.854 50.8589 146.83 50.8057 146.814 50.7461C146.799 50.6855 146.791 50.624 146.791 50.5615C146.791 50.4912 146.8 50.4258 146.817 50.3652C146.835 50.3037 146.861 50.2505 146.895 50.2056C146.928 50.1616 146.969 50.127 147.018 50.1016C147.067 50.0762 147.123 50.0635 147.187 50.0635C147.242 50.0635 147.294 50.0771 147.343 50.1045C147.393 50.1318 147.437 50.1709 147.475 50.2217C147.512 50.2734 147.542 50.3364 147.563 50.4106C147.585 50.4849 147.597 50.5693 147.597 50.6641V50.752C147.58 50.7979 147.557 50.8398 147.528 50.8779C147.5 50.915 147.467 50.9473 147.431 50.9746C147.394 51.0029 147.354 51.0249 147.31 51.0405C147.267 51.0552 147.222 51.0625 147.176 51.0625ZM148.654 51.7598H148.626V52.0015H148.654C148.83 52.0015 148.979 51.9775 149.101 51.9297C149.224 51.8809 149.32 51.8174 149.39 51.7393C149.505 51.6104 149.58 51.4629 149.615 51.2969C149.65 51.1299 149.668 50.9639 149.668 50.7988V50.7007C149.668 50.5845 149.652 50.4683 149.62 50.3521C149.587 50.2349 149.539 50.1372 149.475 50.0591C149.42 49.9927 149.352 49.9395 149.271 49.8994C149.191 49.8584 149.096 49.8379 148.987 49.8379C148.877 49.8379 148.781 49.8579 148.698 49.8979C148.616 49.937 148.548 49.9897 148.493 50.0562C148.438 50.1235 148.396 50.2021 148.367 50.292C148.34 50.3809 148.326 50.4756 148.326 50.5762C148.326 50.6621 148.338 50.7476 148.361 50.8325C148.385 50.9175 148.421 50.9937 148.471 51.061C148.521 51.1284 148.584 51.1831 148.66 51.2251C148.737 51.2661 148.829 51.2866 148.934 51.2866C148.989 51.2866 149.039 51.2812 149.085 51.2705C149.132 51.2588 149.174 51.2432 149.212 51.2236C149.25 51.2041 149.285 51.1816 149.315 51.1562C149.345 51.1299 149.372 51.1021 149.396 51.0728V51.0757C149.391 51.1655 149.376 51.2524 149.353 51.3364C149.33 51.4204 149.284 51.499 149.217 51.5723C149.161 51.6318 149.087 51.6782 148.996 51.7114C148.905 51.7437 148.791 51.7598 148.654 51.7598ZM148.978 51.0625C148.913 51.0625 148.855 51.0483 148.807 51.02C148.759 50.9907 148.719 50.9526 148.688 50.9058C148.656 50.8589 148.632 50.8057 148.616 50.7461C148.601 50.6855 148.593 50.624 148.593 50.5615C148.593 50.4912 148.602 50.4258 148.619 50.3652C148.637 50.3037 148.663 50.2505 148.697 50.2056C148.73 50.1616 148.771 50.127 148.82 50.1016C148.869 50.0762 148.925 50.0635 148.988 50.0635C149.044 50.0635 149.096 50.0771 149.145 50.1045C149.195 50.1318 149.239 50.1709 149.277 50.2217C149.314 50.2734 149.343 50.3364 149.365 50.4106C149.387 50.4849 149.398 50.5693 149.398 50.6641V50.752C149.382 50.7979 149.359 50.8398 149.33 50.8779C149.301 50.915 149.269 50.9473 149.233 50.9746C149.196 51.0029 149.155 51.0249 149.111 51.0405C149.068 51.0552 149.024 51.0625 148.978 51.0625ZM150.456 51.7598H150.428V52.0015H150.456C150.632 52.0015 150.781 51.9775 150.903 51.9297C151.026 51.8809 151.122 51.8174 151.191 51.7393C151.307 51.6104 151.382 51.4629 151.417 51.2969C151.452 51.1299 151.47 50.9639 151.47 50.7988V50.7007C151.47 50.5845 151.454 50.4683 151.421 50.3521C151.389 50.2349 151.341 50.1372 151.276 50.0591C151.222 49.9927 151.154 49.9395 151.073 49.8994C150.993 49.8584 150.898 49.8379 150.789 49.8379C150.679 49.8379 150.583 49.8579 150.5 49.8979C150.418 49.937 150.35 49.9897 150.295 50.0562C150.239 50.1235 150.197 50.2021 150.169 50.292C150.142 50.3809 150.128 50.4756 150.128 50.5762C150.128 50.6621 150.14 50.7476 150.163 50.8325C150.187 50.9175 150.223 50.9937 150.273 51.061C150.323 51.1284 150.386 51.1831 150.462 51.2251C150.539 51.2661 150.63 51.2866 150.736 51.2866C150.791 51.2866 150.841 51.2812 150.887 51.2705C150.934 51.2588 150.976 51.2432 151.014 51.2236C151.052 51.2041 151.086 51.1816 151.117 51.1562C151.147 51.1299 151.174 51.1021 151.197 51.0728V51.0757C151.192 51.1655 151.178 51.2524 151.155 51.3364C151.131 51.4204 151.086 51.499 151.019 51.5723C150.963 51.6318 150.889 51.6782 150.797 51.7114C150.707 51.7437 150.593 51.7598 150.456 51.7598ZM150.78 51.0625C150.714 51.0625 150.657 51.0483 150.608 51.02C150.561 50.9907 150.521 50.9526 150.49 50.9058C150.458 50.8589 150.434 50.8057 150.418 50.7461C150.402 50.6855 150.395 50.624 150.395 50.5615C150.395 50.4912 150.403 50.4258 150.421 50.3652C150.438 50.3037 150.464 50.2505 150.499 50.2056C150.532 50.1616 150.573 50.127 150.622 50.1016C150.67 50.0762 150.727 50.0635 150.79 50.0635C150.846 50.0635 150.898 50.0771 150.947 50.1045C150.997 50.1318 151.041 50.1709 151.079 50.2217C151.116 50.2734 151.145 50.3364 151.167 50.4106C151.189 50.4849 151.2 50.5693 151.2 50.6641V50.752C151.184 50.7979 151.161 50.8398 151.131 50.8779C151.103 50.915 151.071 50.9473 151.035 50.9746C150.998 51.0029 150.957 51.0249 150.913 51.0405C150.87 51.0552 150.826 51.0625 150.78 51.0625Z" fill="black"/>
<circle cx="14" cy="12" r="3" fill="black"/>
</svg>
